<svg width="78" height="40" viewBox="0 0 78 40" fill="none" xmlns="http://www.w3.org/2000/svg">
<path d="M67.8494 32.3409C66.0843 32.3409 64.5577 31.9659 63.2699 31.2159C61.9896 30.4584 61.0009 29.4053 60.304 28.0568C59.607 26.7008 59.2585 25.1288 59.2585 23.3409C59.2585 21.5379 59.607 19.9621 60.304 18.6137C61.0009 17.2576 61.9896 16.2046 63.2699 15.4546C64.5577 14.697 66.0843 14.3182 67.8494 14.3182C69.6146 14.3182 71.1373 14.697 72.4176 15.4546C73.7055 16.2046 74.6979 17.2576 75.3949 18.6137C76.0918 19.9621 76.4403 21.5379 76.4403 23.3409C76.4403 25.1288 76.0918 26.7008 75.3949 28.0568C74.6979 29.4053 73.7055 30.4584 72.4176 31.2159C71.1373 31.9659 69.6146 32.3409 67.8494 32.3409ZM67.8721 28.5909C68.6752 28.5909 69.3456 28.3637 69.8835 27.9091C70.4214 27.447 70.8267 26.8182 71.0994 26.0228C71.3797 25.2273 71.5199 24.322 71.5199 23.3068C71.5199 22.2917 71.3797 21.3864 71.0994 20.5909C70.8267 19.7955 70.4214 19.1667 69.8835 18.7046C69.3456 18.2424 68.6752 18.0114 67.8721 18.0114C67.0615 18.0114 66.3797 18.2424 65.8267 18.7046C65.2812 19.1667 64.8683 19.7955 64.588 20.5909C64.3153 21.3864 64.179 22.2917 64.179 23.3068C64.179 24.322 64.3153 25.2273 64.588 26.0228C64.8683 26.8182 65.2812 27.447 65.8267 27.9091C66.3797 28.3637 67.0615 28.5909 67.8721 28.5909Z" fill="#0443FF"/>
<path d="M47.5767 38.9091C46.0085 38.9091 44.6638 38.6932 43.5426 38.2614C42.429 37.8371 41.5426 37.2576 40.8835 36.5228C40.2244 35.7879 39.7964 34.9621 39.5994 34.0455L44.0767 33.4432C44.213 33.7917 44.429 34.1174 44.7244 34.4205C45.0199 34.7235 45.41 34.9659 45.8949 35.1478C46.3873 35.3371 46.9858 35.4318 47.6903 35.4318C48.7433 35.4318 49.6108 35.1743 50.2926 34.6591C50.982 34.1515 51.3267 33.2993 51.3267 32.1023V28.9091H51.1221C50.91 29.394 50.5918 29.8523 50.1676 30.2841C49.7433 30.7159 49.1979 31.0682 48.5312 31.3409C47.8646 31.6137 47.0691 31.75 46.1449 31.75C44.8343 31.75 43.6411 31.447 42.5653 30.8409C41.4971 30.2273 40.6449 29.2917 40.0085 28.0341C39.3797 26.769 39.0653 25.1705 39.0653 23.2387C39.0653 21.2614 39.3873 19.6099 40.0312 18.2841C40.6752 16.9584 41.5312 15.9659 42.5994 15.3068C43.6752 14.6478 44.8532 14.3182 46.1335 14.3182C47.1108 14.3182 47.929 14.4849 48.588 14.8182C49.2471 15.144 49.7774 15.5531 50.179 16.0455C50.588 16.5303 50.9024 17.0076 51.1221 17.4773H51.304V14.5455H56.1108V32.1705C56.1108 33.6553 55.7471 34.8978 55.0199 35.8978C54.2926 36.8978 53.285 37.6478 51.9971 38.1478C50.7168 38.6553 49.2433 38.9091 47.5767 38.9091ZM47.679 28.1137C48.4593 28.1137 49.1183 27.9205 49.6562 27.5341C50.2017 27.1402 50.6183 26.5796 50.9062 25.8523C51.2017 25.1174 51.3494 24.2387 51.3494 23.2159C51.3494 22.1932 51.2055 21.3068 50.9176 20.5568C50.6297 19.7993 50.213 19.2121 49.6676 18.7955C49.1221 18.3788 48.4593 18.1705 47.679 18.1705C46.8835 18.1705 46.213 18.3864 45.6676 18.8182C45.1221 19.2424 44.7093 19.8334 44.429 20.5909C44.1487 21.3485 44.0085 22.2235 44.0085 23.2159C44.0085 24.2235 44.1487 25.0947 44.429 25.8296C44.7168 26.5568 45.1297 27.1212 45.6676 27.5228C46.213 27.9167 46.8835 28.1137 47.679 28.1137Z" fill="#0443FF"/>
<path d="M27.9744 32.3409C26.2093 32.3409 24.6827 31.9659 23.3949 31.2159C22.1146 30.4584 21.1259 29.4053 20.429 28.0568C19.732 26.7008 19.3835 25.1288 19.3835 23.3409C19.3835 21.5379 19.732 19.9621 20.429 18.6137C21.1259 17.2576 22.1146 16.2046 23.3949 15.4546C24.6827 14.697 26.2093 14.3182 27.9744 14.3182C29.7396 14.3182 31.2623 14.697 32.5426 15.4546C33.8305 16.2046 34.8229 17.2576 35.5199 18.6137C36.2168 19.9621 36.5653 21.5379 36.5653 23.3409C36.5653 25.1288 36.2168 26.7008 35.5199 28.0568C34.8229 29.4053 33.8305 30.4584 32.5426 31.2159C31.2623 31.9659 29.7396 32.3409 27.9744 32.3409ZM27.9971 28.5909C28.8002 28.5909 29.4706 28.3637 30.0085 27.9091C30.5464 27.447 30.9517 26.8182 31.2244 26.0228C31.5047 25.2273 31.6449 24.322 31.6449 23.3068C31.6449 22.2917 31.5047 21.3864 31.2244 20.5909C30.9517 19.7955 30.5464 19.1667 30.0085 18.7046C29.4706 18.2424 28.8002 18.0114 27.9971 18.0114C27.1865 18.0114 26.5047 18.2424 25.9517 18.7046C25.4062 19.1667 24.9933 19.7955 24.713 20.5909C24.4403 21.3864 24.304 22.2917 24.304 23.3068C24.304 24.322 24.4403 25.2273 24.713 26.0228C24.9933 26.8182 25.4062 27.447 25.9517 27.9091C26.5047 28.3637 27.1865 28.5909 27.9971 28.5909Z" fill="#0443FF"/>
<path d="M2.02271 32V8.72729H6.94316V27.9432H16.9204V32H2.02271Z" fill="#0443FF"/>
</svg>
