<svg width="17" height="17" viewBox="0 0 17 17" fill="currentColor" xmlns="http://www.w3.org/2000/svg">
<path d="M8.49967 15.7538L8.5192 15.744L8.52994 15.7421C8.53719 15.7436 8.54217 15.7495 8.54459 15.7587L8.56901 16.2089L8.56608 16.2186C8.56124 16.2249 8.55471 16.2268 8.54557 16.2245L8.49186 16.2001C8.46942 16.3746 8.39102 16.5382 8.2653 16.6639C8.11526 16.814 7.91107 16.8983 7.69889 16.8983H4.49967C4.28749 16.8983 4.0833 16.814 3.93326 16.6639C3.78339 16.514 3.69898 16.3105 3.69889 16.0985V15.7929L8.49967 13.3925V15.7538ZM5.90299 0.922738C6.06683 0.881347 6.24026 0.893101 6.39713 0.955941L6.48209 0.99598L15.2829 5.79578C15.4322 5.87714 15.5513 6.00421 15.6237 6.15809C15.6961 6.31203 15.7179 6.48528 15.6852 6.65223C15.6525 6.81902 15.568 6.97155 15.443 7.0868C15.318 7.20213 15.1589 7.27376 14.9899 7.29286L14.8991 7.29774H13.2995V9.69325C13.3107 9.71836 13.3264 9.74172 13.3454 9.76161C13.3918 9.81511 13.4624 9.87539 13.5534 9.93446L13.651 9.99207C14.0226 10.1953 14.3342 10.493 14.5534 10.8554C14.7726 11.2178 14.8917 11.632 14.8991 12.0556C14.9065 12.4791 14.8018 12.8975 14.5954 13.2675C14.389 13.6372 14.0884 13.9459 13.7243 14.162C13.36 14.378 12.9446 14.4941 12.5212 14.4979C12.0977 14.5017 11.6802 14.393 11.3122 14.1835C10.944 13.9739 10.6374 13.6698 10.4245 13.3036C10.2117 12.9376 10.0994 12.5219 10.0993 12.0985C10.0995 11.8946 10.1781 11.698 10.318 11.5497C10.4579 11.4016 10.6489 11.3127 10.8522 11.3007C11.0557 11.2887 11.2564 11.3545 11.4128 11.4852C11.5691 11.6161 11.6699 11.8023 11.694 12.0048L11.6999 12.0985C11.7 12.2396 11.7373 12.3779 11.8083 12.4999C11.8792 12.6218 11.9807 12.723 12.1032 12.7929C12.2259 12.8627 12.3653 12.8996 12.5065 12.8983C12.6477 12.897 12.7864 12.8581 12.9079 12.786C13.0293 12.7139 13.1292 12.6106 13.1979 12.4872C13.2666 12.364 13.302 12.2249 13.2995 12.0839C13.2969 11.9427 13.2565 11.8043 13.1833 11.6835C13.1101 11.5627 13.0064 11.463 12.8825 11.3954C12.5988 11.2438 12.3441 11.0431 12.1305 10.8026C11.894 10.5364 11.7459 10.2034 11.7067 9.8495L11.6999 9.69813V7.29774H8.49967V7.6034L3.69889 10.0038V7.29774H2.09928C1.95596 7.2978 1.81543 7.25933 1.69205 7.18641C1.56863 7.11341 1.46713 7.00839 1.39811 6.8827C1.3292 6.75715 1.29491 6.61569 1.29948 6.47254C1.30411 6.32922 1.34747 6.18921 1.42448 6.06825L1.48502 5.98621L5.48502 1.18641C5.59311 1.05673 5.73935 0.964189 5.90299 0.922738ZM8.49967 11.6034L3.69889 14.0038V11.7929L8.49967 9.39246V11.6034Z" />
</svg>
