<svg width="16" height="16" viewBox="0 0 16 16" fill="currentColor" xmlns="http://www.w3.org/2000/svg">
<path d="M1.77778 2.22266C1.30628 2.22266 0.854097 2.40996 0.520699 2.74336C0.187301 3.07675 0 3.52894 0 4.00043V9.33377C0 9.80526 0.187301 10.2574 0.520699 10.5908C0.854097 10.9242 1.30628 11.1115 1.77778 11.1115H3.55556C3.55556 11.8188 3.83651 12.4971 4.3366 12.9972C4.8367 13.4973 5.51498 13.7782 6.22222 13.7782C6.92947 13.7782 7.60774 13.4973 8.10784 12.9972C8.60794 12.4971 8.88889 11.8188 8.88889 11.1115H16V9.33377H14.2222V4.00043C14.2222 3.52894 14.0349 3.07675 13.7015 2.74336C13.3681 2.40996 12.9159 2.22266 12.4444 2.22266H1.77778ZM1.77778 4.00043H6.22222V6.6671H1.77778V4.00043ZM8.88889 4.00043H12.4444V6.6671H8.88889V4.00043ZM6.22222 10.2227C6.45797 10.2227 6.68406 10.3163 6.85076 10.483C7.01746 10.6497 7.11111 10.8758 7.11111 11.1115C7.11111 11.3473 7.01746 11.5734 6.85076 11.7401C6.68406 11.9068 6.45797 12.0004 6.22222 12.0004C5.98647 12.0004 5.76038 11.9068 5.59368 11.7401C5.42698 11.5734 5.33333 11.3473 5.33333 11.1115C5.33333 10.8758 5.42698 10.6497 5.59368 10.483C5.76038 10.3163 5.98647 10.2227 6.22222 10.2227Z" />
</svg>
