<svg width="16" height="16" viewBox="0 0 16 16" fill="currentColor" xmlns="http://www.w3.org/2000/svg">
<path fill-rule="evenodd" clip-rule="evenodd" d="M7.1583 10.0695H9.16772C9.16799 10.2278 9.18902 10.3809 9.23082 10.5288C9.14237 10.5653 9.07198 10.6354 9.03507 10.7237C8.99817 10.8119 8.99774 10.9112 9.03389 10.9998L9.04916 11.0376C9.08951 11.1363 9.16739 11.2148 9.26567 11.2561C9.36395 11.2973 9.47458 11.2978 9.57322 11.2574L9.61783 11.239C9.75688 11.4005 9.92407 11.5444 10.1134 11.665C10.0085 11.8607 10.08 12.107 10.2757 12.2123C10.3696 12.2627 10.4797 12.2738 10.5817 12.243C10.6838 12.2123 10.7694 12.1423 10.8199 12.0484L10.8532 11.9865C11.1186 12.0558 11.3925 12.0865 11.6666 12.0777L11.6771 12.1319C11.686 12.1848 11.7054 12.2353 11.7342 12.2805C11.7629 12.3257 11.8004 12.3647 11.8444 12.3952C11.8885 12.4257 11.9382 12.4472 11.9906 12.4582C12.043 12.4692 12.0971 12.4697 12.1497 12.4595C12.2023 12.4493 12.2524 12.4287 12.2969 12.3989C12.3414 12.3691 12.3795 12.3307 12.409 12.2859C12.4384 12.2412 12.4587 12.191 12.4685 12.1383C12.4782 12.0857 12.4774 12.0316 12.466 11.9792L12.4588 11.9411C12.8088 11.8298 13.1293 11.6414 13.3967 11.3897L13.5217 12.8883C13.4224 12.9051 13.333 12.9586 13.2712 13.0382C13.2095 13.1178 13.1799 13.2176 13.1883 13.318C13.1967 13.4184 13.2424 13.512 13.3166 13.5802C13.3907 13.6485 13.4877 13.6864 13.5884 13.6864H14.7941V6.45252C14.796 5.90694 14.6165 5.37621 14.2837 4.94384C14.5349 5.01136 14.7101 5.10982 14.8343 5.22918C15.0581 5.44419 15.196 5.80629 15.196 6.45252L15.3515 8.63073C15.2567 8.77742 15.196 9.0073 15.196 9.26571C15.196 9.70979 15.3756 10.0695 15.5979 10.0695C15.8201 10.0695 15.9998 9.70979 15.9998 9.26571C15.9998 9.0073 15.9387 8.77742 15.8442 8.63073L15.9998 6.45252C15.9998 5.71546 15.8458 5.08611 15.3913 4.64926C14.9424 4.21804 14.2837 4.05568 13.4731 4.04201C13.4426 4.04121 12.6062 4.04121 12.5837 4.04121V4.04402C12.5465 4.04222 12.5093 4.04128 12.472 4.04121H6.55547C5.77783 4.04121 5.19107 3.92547 4.69836 3.77275L4.63728 3.68996C4.90654 3.62164 5.17781 3.51233 5.37273 3.36846C5.88272 2.9931 6.17931 2.23795 5.52584 2.32074C5.33615 2.34486 5.19871 2.34968 5.08699 2.3537C4.81411 2.36294 4.69314 2.36736 4.33144 2.63381C4.18395 2.74232 4.05454 2.85887 3.94925 2.97421C3.38701 2.55625 2.6383 2.36937 1.33097 2.43367C1.27768 2.43367 1.22657 2.45484 1.18889 2.49253C1.1512 2.53021 1.13003 2.58132 1.13003 2.63461C1.13003 2.68791 1.1512 2.73902 1.18889 2.7767C1.22657 2.81439 1.27768 2.83556 1.33097 2.83556H2.02905C2.14358 2.9095 2.24205 2.97863 2.32925 3.04454L0.888901 4.84498H0.803701C0.678374 4.84495 0.554777 4.87423 0.442782 4.93048C0.330786 4.98673 0.233496 5.06839 0.158681 5.16893C0.0838667 5.26948 0.0336008 5.38613 0.0118986 5.50956C-0.00980368 5.633 -0.002341 5.7598 0.0336905 5.87983L0.154256 6.28172C0.203955 6.44729 0.305709 6.59242 0.444418 6.69558C0.583127 6.79874 0.7514 6.85444 0.924266 6.8544H2.275C2.44498 6.8544 2.61059 6.90829 2.74802 7.00832L3.62814 7.64812C3.65494 7.66741 3.68213 7.68483 3.70973 7.70037C4.33948 9.32398 5.0038 10.5883 5.74728 11.2245L5.88593 12.8883C5.7866 12.9051 5.6972 12.9586 5.63544 13.0382C5.57368 13.1178 5.54406 13.2176 5.55246 13.318C5.56085 13.4184 5.60663 13.512 5.68075 13.5802C5.75487 13.6485 5.8519 13.6864 5.95264 13.6864H7.1583V10.0695Z" />
</svg>
