<svg width="17" height="16" viewBox="0 0 17 16" fill="currentColor" xmlns="http://www.w3.org/2000/svg">
<path d="M3.26318 4.79347e-07C3.41664 0.000318284 3.56396 0.0583978 3.67236 0.161133C3.78068 0.263829 3.84126 0.402796 3.8413 0.547852V4.75195C3.8413 4.87077 3.89211 4.98434 3.98095 5.06836C4.06978 5.15235 4.19029 5.2002 4.31591 5.2002C4.44137 5.20008 4.56214 5.15227 4.65087 5.06836C4.73942 4.98439 4.78954 4.87057 4.78954 4.75195V0.547852C4.78429 0.479495 4.79319 0.410475 4.81688 0.345704C4.8406 0.281005 4.87847 0.221518 4.92723 0.170899C4.97604 0.120281 5.0351 0.0790932 5.10106 0.0507817C5.16704 0.0224767 5.23859 0.00725802 5.31102 0.00585985C5.38352 0.00447336 5.45574 0.0171754 5.52293 0.0429692C5.59006 0.0687401 5.65071 0.107529 5.70164 0.15625C5.75261 0.205034 5.79237 0.2633 5.81883 0.327149C5.84525 0.390911 5.85824 0.458897 5.85594 0.527344V4.75195C5.85594 4.81079 5.86826 4.86947 5.89207 4.92383C5.91584 4.97795 5.95082 5.0269 5.99461 5.06836C6.03853 5.1099 6.09056 5.1435 6.14793 5.16602C6.2054 5.18853 6.26736 5.2002 6.32957 5.2002C6.39177 5.20019 6.45374 5.18853 6.51121 5.16602C6.56857 5.1435 6.62061 5.10989 6.66453 5.06836C6.70831 5.0269 6.7433 4.97795 6.76707 4.92383C6.79087 4.86947 6.8032 4.81079 6.8032 4.75195V0.547852C6.80328 0.261945 7.04477 6.33743e-05 7.38132 4.79347e-07H7.38913C7.52897 -9.30779e-05 7.66399 0.0475468 7.76999 0.13379C7.87604 0.220133 7.94657 0.339818 7.96726 0.470704C8.02671 0.849869 8.4946 3.86702 8.4946 5.2002C8.49514 5.61748 8.40323 6.03036 8.22507 6.41211C8.04675 6.79403 7.7851 7.13711 7.45847 7.41797C7.16482 7.67102 7.01418 7.92683 7.01414 8.1543L7.01609 8.20313C7.05585 8.67273 7.43699 13.1904 7.43699 14C7.43699 14.5303 7.21427 15.039 6.81785 15.4141C6.42125 15.7891 5.88264 16 5.32176 16C4.761 15.9999 4.22318 15.7891 3.82665 15.4141C3.43012 15.039 3.20751 14.5304 3.20751 14C3.20751 13.1904 3.58865 8.67273 3.62841 8.20313C3.63009 8.18717 3.63036 8.17226 3.63036 8.1543C3.63032 7.92673 3.47894 7.67112 3.18505 7.41797C2.54982 6.87001 2.14996 6.07852 2.1499 5.2002C2.1499 3.86696 2.61782 0.851225 2.67724 0.470704C2.69792 0.339901 2.7676 0.220118 2.87353 0.13379C2.97963 0.0474673 3.11541 -0.000174327 3.25537 4.79347e-07H3.26318ZM14.5532 4.79347e-07C14.8346 4.79347e-07 15.0629 0.224 15.0629 0.5V7.5C15.0629 7.69599 15.1391 8.7782 15.228 10.0469L15.2309 10.0996C15.3422 11.6827 15.4711 13.5164 15.4711 14C15.4711 14.5304 15.2559 15.039 14.8735 15.4141C14.4911 15.789 13.9728 15.9999 13.4321 16C12.8912 16 12.3721 15.7891 11.9897 15.4141C11.6074 15.039 11.393 14.5304 11.393 14C11.393 13.5644 11.497 11.9159 11.5981 10.4063C11.6487 9.64492 11.6994 8.90995 11.7377 8.36524L11.7641 8H11.0864C10.735 7.99993 10.3984 7.86275 10.1499 7.61914C9.90133 7.37539 9.76125 7.04491 9.76119 6.7002V4.5C9.76119 2.01493 11.8153 0.000217332 14.3491 4.79347e-07H14.5532Z" />
</svg>
