<svg width="17" height="17" viewBox="0 0 17 17" fill="currentColor" xmlns="http://www.w3.org/2000/svg">
<path d="M14.1169 1.49805C14.4613 1.49805 14.7438 1.49802 14.9735 1.51367C15.2071 1.5296 15.4211 1.56304 15.6261 1.64786L15.8016 1.7315C15.9728 1.82299 16.1299 1.93933 16.2676 2.07709C16.4513 2.26073 16.5975 2.47867 16.6969 2.71864L16.7511 2.87397C16.7972 3.03163 16.8191 3.19586 16.8311 3.37121C16.8467 3.60089 16.8467 3.88339 16.8467 4.22783V15.5219C16.8465 15.7817 16.6359 15.9925 16.3761 15.9925C16.1163 15.9925 15.9057 15.7817 15.9055 15.5219V4.69841H1.78786V15.5219C1.78766 15.7817 1.57704 15.9925 1.31727 15.9925C1.05749 15.9925 0.846878 15.7817 0.84668 15.5219V4.22783C0.84668 3.88339 0.846656 3.60089 0.862305 3.37121C0.878237 3.13758 0.91167 2.92358 0.996496 2.71864L1.08014 2.54308C1.17162 2.37188 1.28797 2.21485 1.42572 2.07709C1.60937 1.89345 1.82731 1.74719 2.06727 1.64786L2.2226 1.59364C2.38026 1.54748 2.54449 1.52563 2.71984 1.51367C2.94952 1.49802 3.23202 1.49805 3.57646 1.49805H14.1169ZM8.77407 6.59088C10.1149 6.61056 12.0947 6.58467 12.5057 7.6304L13.4487 9.84088C13.4905 9.79336 13.545 9.75889 13.6059 9.74161L13.9855 9.635C14.0272 9.62315 14.0711 9.61889 14.1141 9.62397C14.1571 9.62906 14.1986 9.64323 14.2364 9.66441C14.2742 9.68562 14.308 9.71396 14.3347 9.74805C14.3614 9.78209 14.381 9.82127 14.3926 9.86294L14.5902 10.5661C14.602 10.6076 14.6054 10.651 14.6004 10.6938C14.5953 10.7367 14.5819 10.7784 14.5608 10.8161C14.5397 10.8538 14.5112 10.8876 14.4772 10.9144C14.4432 10.9411 14.4039 10.9606 14.3623 10.9723L13.9827 11.0789C13.97 11.0825 13.9568 11.0843 13.9441 11.0863C14.0165 11.2669 14.0617 11.4653 14.0618 11.5835V14.1534C14.0617 14.285 14.0071 14.3463 13.9193 14.3749V15.0587C13.9194 15.1195 13.9076 15.1799 13.8844 15.2361C13.8612 15.2921 13.827 15.343 13.7842 15.3859C13.7412 15.4289 13.6896 15.4629 13.6334 15.4861C13.5774 15.5092 13.5176 15.5211 13.457 15.521H12.2162C12.1554 15.5211 12.0949 15.5093 12.0388 15.4861C11.9828 15.4629 11.9318 15.4288 11.889 15.3859C11.8461 15.343 11.812 15.2922 11.7888 15.2361C11.7656 15.1799 11.7537 15.1195 11.7538 15.0587V14.3997H5.93951V15.0587C5.93962 15.1194 5.92777 15.18 5.90458 15.2361C5.88143 15.2921 5.84723 15.343 5.8044 15.3859C5.76144 15.4289 5.70982 15.4629 5.65367 15.4861C5.59764 15.5092 5.5378 15.5211 5.47719 15.521H4.23639C4.17562 15.5211 4.11515 15.5093 4.059 15.4861C4.00294 15.4629 3.95208 15.4288 3.90918 15.3859C3.86627 15.343 3.83219 15.2922 3.809 15.2361C3.78579 15.1799 3.77396 15.1195 3.77407 15.0587V14.3749C3.68638 14.3463 3.63074 14.285 3.63069 14.1534V11.5835C3.6307 11.4654 3.6759 11.2669 3.74833 11.0863C3.73572 11.0842 3.72326 11.0824 3.71065 11.0789L3.33105 10.9723C3.28936 10.9607 3.25022 10.9411 3.21617 10.9144C3.18208 10.8876 3.15374 10.8539 3.13253 10.8161C3.11137 10.7783 3.09717 10.7368 3.09208 10.6938C3.08702 10.6508 3.09132 10.6068 3.10311 10.5651L3.30072 9.86294C3.31235 9.82125 3.33192 9.7821 3.35863 9.74805C3.38541 9.71395 3.41916 9.68562 3.45697 9.66441C3.49476 9.64323 3.5362 9.62904 3.57922 9.62397C3.62225 9.6189 3.66621 9.62226 3.70789 9.63408L4.08657 9.74161C4.1477 9.75879 4.20287 9.79307 4.24466 9.84088L5.18675 7.6304C5.57024 6.60025 7.4332 6.57119 8.77407 6.59088ZM4.78234 11.3703C4.54117 11.3745 4.26319 11.5056 4.26304 11.6736V12.3905C4.26299 12.4302 4.27087 12.4696 4.28602 12.5063C4.30124 12.5431 4.32402 12.5765 4.35219 12.6047C4.38038 12.6328 4.41371 12.6556 4.45054 12.6708C4.48726 12.686 4.52663 12.6939 4.56635 12.6938C5.15936 12.6915 6.62 12.8876 6.62242 12.3216C6.62311 12.1534 6.48079 11.8478 6.31911 11.8023C6.30038 11.796 5.02188 11.3664 4.78234 11.3703ZM12.9101 11.3703C12.6683 11.3666 11.3733 11.8023 11.3733 11.8023C11.2117 11.848 11.0693 12.1535 11.07 12.3216C11.0724 12.8876 12.533 12.6916 13.1261 12.6938C13.166 12.6939 13.206 12.6861 13.2428 12.6708C13.2796 12.6556 13.313 12.6328 13.3412 12.6047C13.3692 12.5765 13.3913 12.543 13.4064 12.5063C13.4216 12.4695 13.4295 12.4303 13.4294 12.3905V11.6736C13.4292 11.5056 13.1513 11.3743 12.9101 11.3703ZM4.16286 10.6892H4.1987C4.18949 10.6774 4.18126 10.6648 4.17297 10.6525L4.16286 10.6892ZM8.79429 7.36753C6.04406 7.33747 6.01562 7.12313 5.0783 9.98058C5.0561 10.0467 5.12347 10.0913 5.19319 10.0955C5.21671 10.0976 7.63253 10.3114 8.84668 10.3115C8.8963 10.3115 8.9587 10.3085 9.01212 10.3078C9.20506 9.66063 9.8061 9.18569 10.514 9.18555C11.1591 9.18555 11.7163 9.5798 11.9561 10.1396C12.2635 10.1148 12.4887 10.0964 12.4993 10.0955C12.5691 10.0914 12.6364 10.0469 12.6141 9.98058C11.5611 7.19373 11.5446 7.39746 8.79429 7.36753ZM10.514 9.72507C10.3234 9.72451 10.1366 9.77763 9.97444 9.87764C9.81215 9.97773 9.68079 10.1215 9.59576 10.2922C10.1865 10.2679 10.8206 10.2255 11.3715 10.1846C11.2779 10.043 11.1507 9.92657 11.0011 9.84639C10.8514 9.76621 10.6837 9.72452 10.514 9.72507Z" />
</svg>
