<svg width="16" height="16" viewBox="0 0 16 16" fill="currentColor" xmlns="http://www.w3.org/2000/svg">
<path d="M14.1649 4.50188C13.7061 3.12553 12.7885 2.20797 11.4122 1.63449V-0.0859375H10.2652V1.5198H9.80645C8.5448 1.5198 7.51255 1.97858 6.59498 2.89614L6.1362 3.35492L4.53047 2.78145C4.18638 2.66675 3.84229 2.55206 3.38351 2.55206C2.69534 2.55206 2.00717 2.78145 1.43369 3.24023C0.74552 3.69901 0.401434 4.27249 0.172043 4.84596C-0.0573477 5.64883 -0.0573477 6.337 0.172043 7.13987C0.516129 7.94274 0.860215 8.51621 1.43369 8.8603C0.974911 10.5807 1.319 12.0718 2.58065 13.3334C3.49821 14.251 4.53047 14.7098 5.79212 14.7098C6.36559 14.7098 6.70968 14.7098 7.05376 14.5951C7.74194 15.5126 8.6595 16.0861 9.80645 16.0861C10.1505 16.0861 10.6093 16.0861 10.9534 15.9714C11.6416 15.742 12.1004 15.2832 12.5591 14.7098C13.0179 14.0216 13.2473 13.4481 13.2473 12.7599C13.2473 12.3012 13.2473 11.9571 13.1326 11.613L12.5591 9.77786L13.2473 9.31908C14.1649 8.40152 14.6237 7.13987 14.509 5.76353H16V4.50188H14.1649ZM3.03943 7.13987C2.35125 6.79578 2.12186 6.337 2.35125 5.64883C2.58065 4.96066 3.03943 4.73127 3.7276 4.96066L7.39785 6.337C5.56272 7.25456 4.18638 7.48395 3.03943 7.13987ZM10.2652 13.5628C9.57706 13.7922 9.11828 13.5628 8.77419 12.8746C8.43011 11.7277 8.6595 10.3513 9.57706 8.51621L10.9534 12.0718C11.1828 12.8746 10.9534 13.3334 10.2652 13.5628ZM11.6416 7.48395L10.9534 5.64883V5.53413L10.6093 5.19005H10.4946L8.6595 4.50188C9.11828 4.15779 9.57706 3.9284 10.1505 3.9284C10.724 3.9284 11.2975 4.15779 11.7563 4.61657C12.2151 5.07535 12.4444 5.53413 12.4444 6.10761C12.2151 6.4517 11.9857 7.02517 11.6416 7.48395Z" />
</svg>
