<svg width="16" height="16" viewBox="0 0 16 16" fill="currentColor" xmlns="http://www.w3.org/2000/svg">
<path d="M15.6486 10.0129C15.7367 10.0179 15.8197 10.0553 15.882 10.1164C15.9443 10.1775 15.9814 10.2587 15.9865 10.3449C16.0959 12.1676 15.5246 13.6342 14.4572 14.2677C14.1063 14.477 13.7029 14.5871 13.2922 14.5861C12.8841 14.5815 12.4819 14.4857 12.1174 14.3058L11.1086 15.2941H13.0373C13.1328 15.2941 13.2247 15.3315 13.2922 15.3976C13.3594 15.4637 13.3976 15.5533 13.3976 15.6467C13.3976 15.7402 13.3596 15.8305 13.2922 15.8967C13.2247 15.9628 13.1328 16.0002 13.0373 16.0002H8.97675C8.88137 16.0002 8.78936 15.9627 8.72187 15.8967C8.65435 15.8305 8.6164 15.7403 8.6164 15.6467C8.61646 15.5532 8.65445 15.4638 8.72187 15.3976C8.78938 15.3314 8.88127 15.2941 8.97675 15.2941H10.091L10.4514 14.9406L9.90351 14.4035C9.64241 14.5224 9.3584 14.5852 9.0705 14.5881C8.75297 14.5888 8.44109 14.5032 8.17011 14.341C7.36025 13.8611 6.92818 12.7621 7.00995 11.4006C7.01519 11.3144 7.05217 11.2321 7.11445 11.1711C7.17669 11.1101 7.25999 11.0737 7.34784 11.0685C8.73724 10.9887 9.85854 11.4119 10.3478 12.2052C10.6611 12.7117 10.6804 13.319 10.4103 13.9035L10.9601 14.4416L11.6076 13.8068C11.2148 13.0177 11.2259 12.1944 11.6467 11.5129C12.2934 10.4666 13.7893 9.90568 15.6486 10.0129ZM13.7385 8.2863C12.5714 8.60177 11.5789 9.1849 10.9435 10.0685L10.8381 10.2219C10.7537 10.3524 10.6792 10.4866 10.6144 10.6222C9.71984 9.63351 8.24305 9.21693 6.71503 9.2365L6.36835 9.24822C6.07701 9.26463 5.79126 9.36874 5.55488 9.55291L5.45624 9.63689C5.2335 9.84549 5.0791 10.1246 5.02851 10.4347L5.01288 10.5705C4.91893 12.0633 5.3095 13.5247 6.28241 14.4474C6.27151 14.7542 6.02254 15 5.71406 15.0002H3.14179C2.3532 14.9997 1.71406 14.3576 1.71406 13.5666V8.83025C1.73747 8.80919 1.76089 8.78739 1.78339 8.76482L7.99921 2.52947L13.7385 8.2863ZM6.7873 0.5031C7.45653 -0.167884 8.54167 -0.167516 9.21113 0.5031L15.8322 7.14373C16.0553 7.36752 16.0552 7.73046 15.8322 7.95427C15.8134 7.9731 15.7913 7.98744 15.7707 8.0031C15.5582 8.00856 15.3475 8.0223 15.1398 8.04119C15.0991 8.0171 15.0586 7.98939 15.0236 7.95427L8.40351 1.31365C8.18031 1.09035 7.8179 1.09 7.59491 1.31365L0.974798 7.95427C0.7517 8.178 0.39034 8.1779 0.16718 7.95427C-0.0556093 7.73042 -0.0558444 7.36743 0.16718 7.14373L6.7873 0.5031Z" />
</svg>
