<svg width="16" height="16" viewBox="0 0 16 16" fill="currentColor" xmlns="http://www.w3.org/2000/svg">
<path d="M7.59594 1.83171C7.81909 1.60855 8.1809 1.60855 8.40406 1.83171L15.0245 8.45216C15.2477 8.67532 15.6095 8.67532 15.8326 8.45216C16.0558 8.229 16.0558 7.86719 15.8326 7.64404L9.21218 1.02359C8.54271 0.354116 7.45729 0.354118 6.78782 1.02359L0.167368 7.64404C-0.0557892 7.86719 -0.0557892 8.229 0.167368 8.45216C0.390524 8.67532 0.752333 8.67532 0.97549 8.45216L7.59594 1.83171Z" />
<path d="M8 3.04389L14.2164 9.26028C14.239 9.28292 14.2622 9.3048 14.2857 9.32591V14.0481C14.2857 14.8371 13.6461 15.4767 12.8571 15.4767H10.2857C9.97012 15.4767 9.71428 15.2208 9.71428 14.9052V11.4767C9.71428 11.1611 9.45845 10.9052 9.14286 10.9052H6.85714C6.54155 10.9052 6.28571 11.1611 6.28571 11.4767V14.9052C6.28571 15.2208 6.02988 15.4767 5.71429 15.4767H3.14286C2.35388 15.4767 1.71429 14.8371 1.71429 14.0481V9.32591C1.73785 9.3048 1.76097 9.28292 1.78361 9.26028L8 3.04389Z"/>
</svg>
