<svg width="16" height="16" viewBox="0 0 16 16" fill="currentColor" xmlns="http://www.w3.org/2000/svg">
<path d="M8 11.1611C7.57222 11.1611 7.20615 11.0089 6.90178 10.7046C6.59741 10.4002 6.44496 10.0339 6.44444 9.60556C6.44393 9.17726 6.59637 8.81119 6.90178 8.50734C7.20719 8.20349 7.57326 8.05104 8 8.05001C8.42674 8.04897 8.79307 8.20141 9.099 8.50734C9.40493 8.81327 9.55711 9.17934 9.55556 9.60556C9.554 10.0318 9.40182 10.3981 9.099 10.7046C8.79619 11.011 8.42985 11.1632 8 11.1611ZM4.45703 4.12207C4.57422 4.17676 4.76172 4.16112 4.76172 4.16112H11.0547C11.0547 4.16112 11.4201 4.18514 11.5664 4.05957C11.7127 3.934 11.7864 3.78283 11.7864 3.78283L12.8606 1.63439C12.8606 1.63439 12.9899 1.44789 12.8711 1.22953C12.7523 1.01117 12.4648 1.05001 12.4648 1.05001H3.5C3.5 1.05001 3.24983 1.00817 3.12477 1.23032C3.00588 1.44152 3.12477 1.60511 3.12477 1.60511L4.28395 3.92346C4.28395 3.92346 4.33984 4.06738 4.45703 4.12207ZM5.2 15.05H10.8C11.9667 15.05 12.9583 14.645 13.775 13.8351C14.5917 13.0252 15 12.0302 15 10.85C15 10.3574 14.9157 9.87778 14.7472 9.41112C14.5787 8.94445 14.3389 8.52315 14.0278 8.14723L12.2602 6.05433C12.2602 6.05433 12.0525 5.82265 11.9503 5.7779C11.7461 5.68848 11.4435 5.71667 11.4435 5.71667H4.40234C4.40234 5.71667 4.19039 5.71667 4.04297 5.77832C3.89555 5.83997 3.78377 5.96989 3.78377 5.96989L1.97222 8.14723C1.66111 8.52315 1.4213 8.94445 1.25278 9.41112C1.08426 9.87778 1 10.3574 1 10.85C1 12.0296 1.40522 13.0247 2.21567 13.8351C3.02611 14.6456 4.02089 15.0505 5.2 15.05Z" />
</svg>
