<svg width="17" height="17" viewBox="0 0 17 17" fill="currentColor" xmlns="http://www.w3.org/2000/svg">
<path d="M16.2812 2.04414C16.575 1.75039 16.575 1.27539 16.2812 0.984767C15.9875 0.694142 15.5125 0.691017 15.2218 0.984767L12.4687 3.73164C12.175 4.02539 12.175 4.50039 12.4687 4.79102C12.7625 5.08164 13.2375 5.08477 13.5281 4.79102L16.2781 2.04102L16.2812 2.04414ZM10.0468 1.61602C9.85308 1.42227 9.53433 1.42227 9.34058 1.61602L8.98433 1.96914C7.81245 3.14102 7.81245 5.04102 8.98433 6.21289L9.30933 6.53789L8.3562 7.49102C8.24995 6.63789 7.87183 5.80977 7.21558 5.15352L6.86245 4.80039C6.6687 4.60664 6.34995 4.60664 6.1562 4.80039L5.80308 5.15352C4.6312 6.32539 4.6312 8.22539 5.80308 9.39727L6.12808 9.72227L5.17495 10.6754C5.0687 9.82227 4.69058 8.99414 4.03433 8.33789L3.6812 7.98164C3.48745 7.78789 3.1687 7.78789 2.97495 7.98164L2.62183 8.33477C1.44995 9.50664 1.44995 11.4066 2.62183 12.5785L2.94683 12.9035L0.793701 15.0566C0.403076 15.4473 0.403076 16.0816 0.793701 16.4723C1.18433 16.8629 1.8187 16.8629 2.20933 16.4723L4.36245 14.3191L4.7437 14.7004C5.91558 15.8723 7.81558 15.8723 8.98745 14.7004L9.34058 14.3473C9.53433 14.1535 9.53433 13.8348 9.34058 13.641L8.98745 13.2879C8.3062 12.6066 7.43745 12.2223 6.54683 12.1348L7.5437 11.1379L7.92495 11.5191C9.09683 12.691 10.9968 12.691 12.1687 11.5191L12.5218 11.166C12.7156 10.9723 12.7156 10.6535 12.5218 10.4598L12.1687 10.1066C11.4875 9.42539 10.6187 9.04102 9.72808 8.95352L10.725 7.95664L11.1062 8.33789C12.2781 9.50977 14.1781 9.50977 15.35 8.33789L15.7031 7.98164C15.8968 7.78789 15.8968 7.46914 15.7031 7.27539L15.35 6.91914C15.1875 6.75664 15.0187 6.61289 14.8375 6.48477L16.2812 5.04414C16.575 4.75039 16.575 4.27539 16.2812 3.98477C15.9875 3.69414 15.5125 3.69102 15.2218 3.98477L13.3656 5.84102C12.7218 5.70352 12.0531 5.72539 11.4187 5.90664C11.6093 5.24102 11.625 4.53789 11.4625 3.86602L13.2812 2.04414C13.575 1.75039 13.575 1.27539 13.2812 0.984767C12.9875 0.694142 12.5125 0.691017 12.2218 0.984767L10.7843 2.41602C10.6687 2.25977 10.5406 2.10977 10.3968 1.96914L10.0468 1.61602Z" />
</svg>
