<svg width="17" height="16" viewBox="0 0 17 16" fill="currentColor" xmlns="http://www.w3.org/2000/svg">
<path d="M5.98143 1.35938C6.09246 1.35938 6.20232 1.38616 6.30076 1.4375C6.39908 1.48884 6.48337 1.56335 6.54686 1.6543L10.0498 6.66016C10.367 7.11529 10.0429 7.74316 9.48436 7.74316H9.52635L11.5049 10.8184C11.8014 11.2735 11.4705 11.8809 10.9258 11.8809H7.36033V13.2598C7.36033 14.0183 6.73998 14.6387 5.98143 14.6387C5.22295 14.6386 4.60252 14.0183 4.60252 13.2598V11.8809H1.03709C0.49238 11.8808 0.161486 11.2735 0.457991 10.8184L2.43748 7.74316H2.4785C1.91993 7.74316 1.59586 7.11529 1.91307 6.66016L5.416 1.6543C5.47955 1.56325 5.56462 1.48884 5.66307 1.4375C5.76142 1.38624 5.87052 1.3594 5.98143 1.35938ZM12.0908 12.7959V13.2598C12.0908 14.0182 11.4703 14.6385 10.7119 14.6387C9.95334 14.6387 9.33201 14.0183 9.33201 13.2598V12.7959H12.0908ZM10.7119 1.35938C10.8228 1.35943 10.9319 1.38623 11.0303 1.4375C11.1287 1.48884 11.2138 1.56325 11.2773 1.6543L14.7803 6.66016C15.0974 7.11526 14.7733 7.74308 14.2148 7.74316H14.2558L16.2353 10.8184C16.5318 11.2734 16.2009 11.8807 15.6562 11.8809H12.7041C12.711 11.874 12.7187 11.8672 12.7256 11.8535C12.9669 11.4122 12.9526 10.8738 12.6767 10.4463L11.0976 7.98438C11.3091 7.7523 11.435 7.45495 11.4551 7.1416C11.4751 6.82837 11.3881 6.5178 11.208 6.26074L9.06346 3.19824L10.1465 1.6543C10.21 1.56331 10.2942 1.48884 10.3926 1.4375C10.491 1.38616 10.6009 1.35938 10.7119 1.35938Z" />
</svg>
