<svg width="16" height="17" viewBox="0 0 16 17" fill="currentColor" xmlns="http://www.w3.org/2000/svg">
<path d="M9.40001 15.2576H7.26668C7.12523 15.2576 6.98957 15.3137 6.88955 15.4138C6.78953 15.5138 6.73334 15.6494 6.73334 15.7909C6.73334 15.9323 6.78953 16.068 6.88955 16.168C6.98957 16.268 7.12523 16.3242 7.26668 16.3242H9.40001C9.54146 16.3242 9.67711 16.268 9.77713 16.168C9.87715 16.068 9.93334 15.9323 9.93334 15.7909C9.93334 15.6494 9.87715 15.5138 9.77713 15.4138C9.67711 15.3137 9.54146 15.2576 9.40001 15.2576ZM9.93334 13.6576H6.73334C6.5919 13.6576 6.45624 13.7137 6.35622 13.8138C6.2562 13.9138 6.20001 14.0494 6.20001 14.1909C6.20001 14.3323 6.2562 14.468 6.35622 14.568C6.45624 14.668 6.5919 14.7242 6.73334 14.7242H9.93334C10.0748 14.7242 10.2104 14.668 10.3105 14.568C10.4105 14.468 10.4667 14.3323 10.4667 14.1909C10.4667 14.0494 10.4105 13.9138 10.3105 13.8138C10.2104 13.7137 10.0748 13.6576 9.93334 13.6576ZM12.114 1.88057C11.1117 0.8769 9.76901 0.324234 8.33334 0.324234C7.63249 0.322563 6.93822 0.459374 6.29039 0.726807C5.64257 0.99424 5.05396 1.38703 4.55839 1.8826C4.06281 2.37818 3.67002 2.96679 3.40259 3.61461C3.13515 4.26243 2.99834 4.95671 3.00002 5.65756C3.00002 7.21156 3.59568 8.66523 4.63335 9.64556L4.77868 9.78189C5.37901 10.3432 6.20001 11.1122 6.20001 11.7909V12.5909C6.20001 12.7323 6.2562 12.868 6.35622 12.968C6.45624 13.068 6.5919 13.1242 6.73334 13.1242H7.53334C7.60407 13.1242 7.6719 13.0961 7.72191 13.0461C7.77192 12.9961 7.80001 12.9283 7.80001 12.8576V8.95156C7.80003 8.89763 7.78369 8.84497 7.75317 8.80051C7.72264 8.75606 7.67935 8.72191 7.62901 8.70256C7.32104 8.57692 7.02847 8.41643 6.75701 8.22423C6.69601 8.18527 6.64357 8.13431 6.6029 8.07444C6.56222 8.01457 6.53416 7.94704 6.52042 7.87598C6.50668 7.80492 6.50755 7.7318 6.52297 7.66108C6.53839 7.59037 6.56805 7.52353 6.61013 7.46464C6.65221 7.40575 6.70584 7.35604 6.76775 7.31854C6.82966 7.28105 6.89856 7.25654 6.97024 7.24653C7.04192 7.23651 7.11489 7.24119 7.18471 7.26028C7.25453 7.27936 7.31973 7.31246 7.37634 7.35756C7.62301 7.53223 8.09801 7.79089 8.33334 7.79089C8.56868 7.79089 9.04368 7.53156 9.29101 7.35756C9.40617 7.28516 9.54465 7.2595 9.6781 7.28583C9.81156 7.31216 9.92992 7.38849 10.0089 7.49921C10.088 7.60993 10.1217 7.74666 10.1033 7.88143C10.0848 8.0162 10.0156 8.13883 9.90968 8.22423C9.63817 8.41609 9.3456 8.57624 9.03768 8.70156C8.98734 8.72091 8.94405 8.75506 8.91352 8.79951C8.88299 8.84397 8.86666 8.89663 8.86668 8.95056V12.8576C8.86668 12.9283 8.89477 12.9961 8.94478 13.0461C8.99479 13.0961 9.06262 13.1242 9.13334 13.1242H9.93334C10.0748 13.1242 10.2104 13.068 10.3105 12.968C10.4105 12.868 10.4667 12.7323 10.4667 12.5909V11.7909C10.4667 11.1282 11.2787 10.3599 11.8717 9.79856L12.0353 9.64323C13.1027 8.62423 13.6667 7.24456 13.6667 5.65756C13.6702 4.95664 13.5348 4.26197 13.2683 3.61369C13.0018 2.9654 12.6095 2.37635 12.114 1.88057Z" />
</svg>
