<svg width="16" height="16" viewBox="0 0 16 16" fill="currentColor" xmlns="http://www.w3.org/2000/svg">
<path d="M12.6709 13.1094C12.7312 13.0958 12.792 13.1044 12.8486 13.1279C12.9048 13.1515 12.9525 13.1884 12.9854 13.2402C13.0179 13.2918 13.0313 13.3515 13.0313 13.4131V13.6377H15.0234L14.9512 13.7832L14.3604 14.9648C14.3547 14.9727 14.1624 15.2371 14.0215 15.3262C13.8766 15.4176 13.715 15.4638 13.541 15.4639H13.0313V15.6885C13.0312 15.7501 13.0179 15.8097 12.9854 15.8613C12.9525 15.9131 12.9048 15.9501 12.8486 15.9736C12.7921 15.9971 12.7311 16.0058 12.6709 15.9922C12.6412 15.9854 12.6127 15.9733 12.5869 15.958L12.5156 15.9014L11.5195 14.9062C11.421 14.8076 11.3692 14.6872 11.3691 14.5508C11.3691 14.4143 11.421 14.294 11.5195 14.1953L12.5156 13.2002L12.5869 13.1436C12.6127 13.1282 12.6411 13.1162 12.6709 13.1094ZM10.0869 13.6377C10.2243 13.6377 10.4388 13.7786 10.4473 13.7842C10.5204 13.8574 10.5669 13.9449 10.585 14.043L10.5938 14.1445V14.957C10.5937 15.0972 10.5448 15.2198 10.4473 15.3174C10.4403 15.3225 10.2844 15.4364 10.1885 15.4541L10.0869 15.4639H9C8.84632 15.4638 8.70327 15.423 8.5752 15.3418C8.44875 15.2615 8.3533 15.1538 8.29102 15.0215C8.22977 14.8989 8.2002 14.7698 8.2041 14.6348C8.20813 14.4995 8.24527 14.3722 8.31446 14.2559L8.31543 14.2549L8.66114 13.6865L8.68946 13.6377H10.0869ZM8.8418 0C9.08031 0 9.28073 0.0806147 9.44239 0.242188C9.604 0.403802 9.68409 0.603897 9.6836 0.841797H13.0527C13.2912 0.841854 13.4917 0.923334 13.6533 1.08496C13.8148 1.24658 13.8951 1.44672 13.8945 1.68457C13.8939 1.92227 13.8131 2.12208 13.6523 2.28418C13.4913 2.44637 13.2912 2.52743 13.0527 2.52637V5.17871C13.0527 5.41731 12.9578 5.61417 12.7686 5.76855C12.5795 5.92279 12.3585 5.97853 12.1055 5.93652C11.9932 5.92249 11.8734 5.91257 11.7471 5.90527C11.6208 5.89798 11.4944 5.89397 11.3682 5.89453C11.0875 5.89454 10.807 5.91289 10.5264 5.94824C10.2457 5.98361 9.9643 6.04233 9.6836 6.12598V5.05273C9.6836 4.81414 9.60309 4.61425 9.44141 4.45312C9.27973 4.29202 9.07982 4.2115 8.8418 4.21094C8.60383 4.21041 8.40384 4.29092 8.24219 4.45312C8.08059 4.61535 8 4.81533 8 5.05273V6.94727C7.72585 7.35202 7.13821 8.10815 7.12207 8.12891C7.12207 8.12891 6.52656 8.93639 6.31543 9.30078V5.05273C6.31543 4.81419 6.23486 4.61423 6.07325 4.45312C5.91158 4.29202 5.71163 4.21152 5.47364 4.21094C5.2356 4.21038 5.03571 4.29088 4.87403 4.45312C4.71234 4.61537 4.63184 4.81526 4.63184 5.05273V10.9473C4.63184 11.1859 4.71234 11.3862 4.87403 11.5479C5.0357 11.7095 5.23563 11.7896 5.47364 11.7891C5.47364 12.1959 5.51892 12.5999 5.61035 13C5.70186 13.4003 5.8247 13.7831 5.97852 14.1475C6.0908 14.3861 6.08032 14.6142 5.94727 14.832C5.81428 15.0496 5.62858 15.1587 5.38965 15.1582H2.94727C2.48414 15.1582 2.08735 14.9936 1.75782 14.6641C1.42827 14.3345 1.26326 13.9374 1.2627 13.4736V2.52637C1.02425 2.5263 0.824137 2.44578 0.663089 2.28418C0.502047 2.12258 0.421543 1.92245 0.420901 1.68457C0.42034 1.4467 0.501069 1.24659 0.663089 1.08496C0.825263 0.923348 1.02536 0.841868 1.2627 0.841797H4.63184C4.63191 0.603337 4.71241 0.403241 4.87403 0.242188C5.03567 0.0811992 5.2357 0.000561169 5.47364 0H8.8418ZM8.74024 10.8418C8.83904 10.8365 8.9352 10.8612 9.02539 10.9141C9.14606 10.985 9.22626 11.09 9.25977 11.2246L9.59473 12.5869L9.59571 12.5879L9.6045 12.6777C9.60319 12.7073 9.5968 12.7371 9.58594 12.7656C9.56414 12.8224 9.5249 12.8684 9.47559 12.9043C9.42639 12.94 9.37032 12.964 9.30957 12.9668C9.24846 12.9695 9.1908 12.9505 9.13965 12.918L8.95215 12.8008L7.98633 14.4131L7.90528 14.25L7.24414 12.9297C7.17585 12.793 7.14388 12.6458 7.14746 12.4912C7.15117 12.3345 7.19578 12.1864 7.2793 12.0498L7.38965 11.8623L7.20215 11.752L7.19922 11.75C7.14826 11.7175 7.10645 11.6737 7.08203 11.6182C7.05786 11.5629 7.05365 11.5025 7.0625 11.4424C7.07151 11.3816 7.09437 11.3249 7.13575 11.2793C7.177 11.234 7.23082 11.2062 7.29004 11.1924L8.64063 10.8574L8.74024 10.8418ZM14.3027 11.0908C14.3946 11.0592 14.4923 11.0562 14.5918 11.0811C14.7256 11.1146 14.8305 11.1927 14.8984 11.3115L15.3418 12.0479L15.3984 12.1484C15.4473 12.2519 15.4738 12.3642 15.4795 12.4834C15.487 12.6422 15.4524 12.7913 15.377 12.9287L15.3779 12.9297C15.3017 13.0818 15.1891 13.2043 15.042 13.2949C14.8944 13.3858 14.7317 13.4315 14.5576 13.4316H14.0439L14.0147 13.3828L13.3232 12.2354C13.2484 12.1169 13.2303 11.9845 13.2676 11.8477C13.3047 11.7122 13.3829 11.6061 13.502 11.5381L14.2129 11.1318L14.3027 11.0908ZM12.1191 7.54297C12.2787 7.54303 12.4302 7.58261 12.5703 7.66211C12.6751 7.72171 12.7648 7.79808 12.8379 7.88965L12.9053 7.98633L12.9063 7.9873L13.3818 8.78418L13.5596 8.6748C13.6105 8.64266 13.6678 8.62431 13.7285 8.62695C13.7893 8.62977 13.8453 8.65373 13.8945 8.68945C13.9439 8.72541 13.9841 8.77123 14.0059 8.82812C14.0276 8.88532 14.0283 8.94637 14.0147 9.00586V9.00781L13.6787 10.3584C13.6449 10.4928 13.5656 10.599 13.4453 10.6699C13.3554 10.7228 13.2589 10.7476 13.1602 10.7422L13.0596 10.7266L11.709 10.3916C11.6499 10.3776 11.5954 10.3488 11.5547 10.3027C11.514 10.2563 11.4932 10.1985 11.4863 10.1377C11.4796 10.0777 11.4856 10.0181 11.5107 9.96387C11.536 9.90943 11.5773 9.86639 11.6279 9.83398L11.6309 9.83203L11.8184 9.7207L10.5098 7.54297H12.1191ZM10.123 7.77637C10.3118 7.77647 10.4601 7.86434 10.5586 8.02832L11.1895 9.0752L11.1582 9.12695L10.4678 10.2744C10.3994 10.3934 10.2924 10.4699 10.1563 10.5029C10.0214 10.5354 9.89143 10.5195 9.77344 10.4521L9.77149 10.4512L9.07227 10.0342C8.95201 9.96538 8.87611 9.85848 8.84668 9.7207C8.81807 9.5862 8.83648 9.45696 8.90332 9.33984L8.9043 9.33887L9.68653 8.02832L9.72559 7.96973C9.82273 7.84312 9.95788 7.77647 10.123 7.77637Z" />
</svg>
