<svg width="16" height="17" viewBox="0 0 16 17" fill="currentColor" xmlns="http://www.w3.org/2000/svg">
<path d="M14.2166 9.7819C14.239 9.80443 14.2625 9.82631 14.2859 9.84733V14.5837C14.2859 15.375 13.6462 16.0173 12.8572 16.0173H3.14332C2.35443 16.0171 1.71461 15.3749 1.71461 14.5837V9.84733C1.73806 9.82624 1.7614 9.80451 1.78394 9.7819L8.00074 3.54655L14.2166 9.7819ZM11.1853 10.3796C9.75766 10.299 8.60873 10.7215 8.11207 11.5094C7.78907 12.0227 7.78139 12.6427 8.08277 13.237L7.58473 13.7155L7.16285 13.3102C7.37008 12.87 7.35549 12.4123 7.115 12.0309C6.73917 11.4336 5.87799 11.1145 4.81129 11.1745C4.74388 11.1784 4.67938 11.2067 4.6316 11.2526C4.58406 11.2985 4.55564 11.3598 4.55152 11.4245C4.48866 12.4501 4.82028 13.2787 5.44215 13.6403C5.65018 13.7624 5.8898 13.8264 6.13355 13.8258C6.35472 13.8237 6.57262 13.7758 6.7732 13.6862L7.1941 14.0915L6.91773 14.3581H6.06129C5.9882 14.3581 5.91774 14.3856 5.86598 14.4352C5.81423 14.485 5.78504 14.5533 5.78492 14.6237C5.78499 14.6939 5.81442 14.7614 5.86598 14.8112C5.91777 14.861 5.98805 14.8893 6.06129 14.8893H9.18043C9.25369 14.8893 9.32394 14.861 9.37574 14.8112C9.42738 14.7614 9.45673 14.694 9.4568 14.6237C9.45667 14.5533 9.42748 14.485 9.37574 14.4352C9.32398 14.3857 9.25348 14.3581 9.18043 14.3581H7.69898L8.4734 13.613C8.75336 13.7485 9.06231 13.8204 9.37574 13.8239C9.69117 13.8247 10.0008 13.7422 10.2703 13.5846C11.09 13.1074 11.53 12.0026 11.4461 10.6296C11.442 10.5647 11.4128 10.5027 11.365 10.4567C11.3171 10.4109 11.2527 10.3833 11.1853 10.3796ZM6.78785 1.52116C7.4573 0.8497 8.5422 0.849738 9.21168 1.52116L15.8328 8.1608C16.0558 8.38455 16.0557 8.74751 15.8328 8.97135C15.6096 9.19518 15.2473 9.19518 15.0242 8.97135L8.40406 2.3317C8.18091 2.10788 7.81863 2.10788 7.59547 2.3317L0.975351 8.97135C0.752213 9.19516 0.390895 9.19512 0.167734 8.97135C-0.055423 8.74753 -0.055423 8.38463 0.167734 8.1608L6.78785 1.52116Z" />
</svg>
