<svg width="16" height="16" viewBox="0 0 16 16" fill="currentColor" xmlns="http://www.w3.org/2000/svg">
<path d="M8.00042 0C8.27642 0.000169234 8.50042 0.223962 8.50042 0.5V15.5C8.50042 15.776 8.27642 15.9998 8.00042 16C7.72428 16 7.50042 15.7761 7.50042 15.5V0.5C7.50042 0.223858 7.72428 0 8.00042 0ZM6.50042 13.5H2.9389C2.36033 13.5 1.89105 13.0295 1.89105 12.4492V8.97559C1.90824 8.96013 1.9253 8.94431 1.94183 8.92773L6.50042 4.35547V13.5ZM14.059 8.92773C14.0756 8.94431 14.0926 8.96013 14.1098 8.97559V12.4492C14.1098 13.0295 13.6405 13.5 13.0619 13.5H9.50042V4.35547L14.059 8.92773ZM6.50042 3.34082C6.39323 3.34083 6.28633 3.38187 6.20453 3.46387L1.34905 8.33301C1.18541 8.49711 0.919917 8.49713 0.756281 8.33301C0.592875 8.16885 0.592716 7.90234 0.756281 7.73828L5.61175 2.86914C5.85719 2.62307 6.17879 2.50001 6.50042 2.5V3.34082ZM9.50042 2.5C9.82202 2.50008 10.1437 2.62305 10.3891 2.86914L15.2436 7.73828C15.4072 7.90242 15.4072 8.16887 15.2436 8.33301C15.08 8.49698 14.8154 8.49693 14.6518 8.33301L9.79632 3.46387C9.71458 3.38188 9.60756 3.3409 9.50042 3.34082V2.5Z" />
</svg>
