<svg width="16" height="17" viewBox="0 0 16 17" fill="currentColor" xmlns="http://www.w3.org/2000/svg">
<path d="M7.90718 5.40918C9.63454 5.43453 12.1853 5.40086 12.7147 6.74805L13.9286 9.5957C13.9825 9.53435 14.0531 9.49005 14.1317 9.46777L14.621 9.33008C14.6746 9.31489 14.7306 9.31088 14.786 9.31738C14.8415 9.32392 14.8955 9.34084 14.9442 9.36816C14.9929 9.39549 15.0357 9.43265 15.0702 9.47656C15.1045 9.52039 15.1304 9.57037 15.1454 9.62402L15.4002 10.5293C15.4155 10.583 15.4195 10.6399 15.4129 10.6953C15.4064 10.7506 15.3884 10.804 15.3612 10.8525C15.3339 10.9012 15.2976 10.944 15.2538 10.9785C15.21 11.0129 15.1599 11.0387 15.1063 11.0537L14.617 11.1914C14.6008 11.196 14.5844 11.1977 14.5682 11.2002C14.6614 11.4328 14.7195 11.6885 14.7196 11.8408V15.1514C14.7196 15.3209 14.6489 15.3997 14.536 15.4365V16.3184C14.5361 16.3966 14.52 16.4746 14.4901 16.5469C14.4602 16.619 14.4164 16.685 14.3612 16.7402C14.3059 16.7955 14.2401 16.8393 14.1678 16.8691C14.0955 16.899 14.0176 16.9142 13.9393 16.9141H12.3417C12.2634 16.9142 12.1855 16.899 12.1132 16.8691C12.0409 16.8393 11.9751 16.7955 11.9198 16.7402C11.8645 16.6849 11.8208 16.6183 11.7909 16.5459C11.7611 16.4737 11.7459 16.3965 11.746 16.3184V15.4688H4.25586V16.3184C4.25597 16.3965 4.23977 16.4737 4.20996 16.5459C4.18007 16.6182 4.13641 16.6849 4.08106 16.7402C4.02578 16.7954 3.95989 16.8393 3.8877 16.8691C3.81556 16.8989 3.7382 16.9141 3.66017 16.9141H2.06156C1.98328 16.9142 1.90539 16.899 1.83304 16.8691C1.7608 16.8393 1.69498 16.7955 1.63969 16.7402C1.58434 16.6849 1.54067 16.6182 1.51078 16.5459C1.48101 16.4737 1.46575 16.3965 1.46586 16.3184V15.4365C1.35287 15.3997 1.28132 15.321 1.28129 15.1514V11.8408C1.28133 11.6886 1.33936 11.4329 1.43266 11.2002C1.41643 11.1976 1.40006 11.1958 1.38383 11.1914L0.895556 11.0537C0.841773 11.0387 0.791032 11.013 0.74712 10.9785C0.703293 10.9441 0.666996 10.9011 0.6397 10.8525C0.612376 10.8038 0.594499 10.7498 0.587943 10.6943C0.581467 10.639 0.585468 10.5829 0.600638 10.5293L0.856494 9.62402C0.871458 9.57049 0.896436 9.52032 0.930711 9.47656C0.965138 9.43273 1.0081 9.39547 1.05669 9.36816C1.1054 9.34084 1.15942 9.32295 1.21489 9.31641C1.27022 9.30988 1.32631 9.31493 1.37992 9.33008L1.86917 9.46777C1.94783 9.48992 2.01851 9.53418 2.0723 9.5957L3.28615 6.74805C3.78017 5.42095 6.17981 5.38382 7.90718 5.40918ZM2.76565 11.5664C2.45481 11.5717 2.09578 11.7405 2.09573 11.957V12.8799C2.09566 12.9312 2.10639 12.9828 2.12601 13.0303C2.14562 13.0776 2.17379 13.121 2.20999 13.1572C2.2462 13.1934 2.28964 13.2216 2.33694 13.2412C2.38439 13.2608 2.436 13.2706 2.48733 13.2705C3.25154 13.2676 5.1325 13.521 5.13573 12.792C5.13677 12.5756 4.95337 12.1821 4.74511 12.123C4.74511 12.123 3.07751 11.5618 2.76565 11.5664ZM13.2352 11.5664C12.9233 11.5619 11.2558 12.123 11.2558 12.123C11.0475 12.1821 10.8641 12.5756 10.8651 12.792C10.8684 13.521 12.7495 13.2686 13.5135 13.2715C13.5649 13.2716 13.6165 13.2608 13.6639 13.2412C13.7112 13.2216 13.7547 13.1934 13.7909 13.1572C13.8271 13.121 13.8553 13.0776 13.8749 13.0303C13.8945 12.9828 13.9052 12.9312 13.9051 12.8799V11.957C13.9051 11.7405 13.5461 11.5716 13.2352 11.5664ZM1.96683 10.6885H2.01273C2.00098 10.6733 1.99108 10.6573 1.9805 10.6416L1.96683 10.6885ZM7.93354 6.41016C4.3904 6.37145 4.35392 6.09452 3.1465 9.77539C3.11773 9.86067 3.20408 9.91849 3.29396 9.92383C3.3024 9.92458 6.43132 10.2021 8.00093 10.2021C8.06483 10.2021 8.14501 10.1991 8.21381 10.1982C8.46223 9.36414 9.23708 8.75098 10.1493 8.75098C10.9805 8.75111 11.698 9.26015 12.0067 9.98145C12.4124 9.94867 12.7069 9.92383 12.7069 9.92383C12.7968 9.91854 12.8831 9.86073 12.8544 9.77539C11.4979 6.18546 11.4766 6.44872 7.93354 6.41016ZM10.1493 9.44727C9.90371 9.44647 9.66211 9.51461 9.45305 9.64355C9.24419 9.77249 9.07521 9.95706 8.96576 10.1768C9.72688 10.1455 10.5441 10.0917 11.2538 10.0391C11.1333 9.85659 10.969 9.70684 10.7763 9.60352C10.5836 9.50024 10.368 9.44661 10.1493 9.44727ZM2.87111 0.914062C3.22204 0.914127 3.56718 1.00618 3.8711 1.18164C4.17505 1.35715 4.42703 1.61011 4.60254 1.91406H11.871C12.1361 1.91416 12.3906 2.01958 12.578 2.20703C12.7654 2.39455 12.871 2.64895 12.871 2.91406C12.871 3.17918 12.7654 3.43359 12.578 3.62109C12.3906 3.80854 12.1361 3.91396 11.871 3.91406H4.60254C4.42703 4.218 4.17503 4.47098 3.8711 4.64648C3.56718 4.82196 3.22205 4.91399 2.87111 4.91406C2.52023 4.91405 2.17504 4.82185 1.87113 4.64648C1.56712 4.47096 1.31425 4.21807 1.13872 3.91406H2.87111V1.91406H1.13872C1.31426 1.61005 1.5671 1.35716 1.87113 1.18164C2.17506 1.00627 2.52021 0.914062 2.87111 0.914062Z" />
</svg>
