<svg width="17" height="17" viewBox="0 0 17 17" fill="currentColor" xmlns="http://www.w3.org/2000/svg">
<path d="M13.6917 2.27148C13.9542 2.00953 14.3809 1.97829 14.6428 2.24023L14.7278 2.3457C14.8934 2.60631 14.84 2.96177 14.6106 3.19141L13.5129 4.28809C14.4511 5.43429 15.0168 6.89921 15.0168 8.49609C15.0168 12.1688 12.0391 15.1465 8.36646 15.1465C6.7698 15.1465 5.30457 14.5815 4.15845 13.6436L3.06177 14.7412C2.83219 14.9705 2.47757 15.0219 2.21704 14.8564L2.1106 14.7715C1.84902 14.5094 1.87983 14.0837 2.14185 13.8213L13.6917 2.27148ZM8.85474 8.94531C8.86233 8.97992 8.86644 9.01585 8.86646 9.05273V11.0586H9.7356L9.83618 11.0684C10.064 11.1149 10.2355 11.317 10.2356 11.5586C10.2355 11.8001 10.064 12.0013 9.83618 12.0479L9.7356 12.0586H7.36938C7.09334 12.0586 6.86954 11.8346 6.86938 11.5586C6.86952 11.2826 7.09332 11.0586 7.36938 11.0586H7.86646V9.93457L5.08228 12.7188C5.98909 13.4252 7.1279 13.8457 8.36646 13.8457C11.3212 13.8457 13.7161 11.4508 13.7161 8.49609C13.7161 7.25765 13.2955 6.11873 12.5891 5.21191L8.85474 8.94531ZM3.51196 10.748C3.66307 11.0735 3.52189 11.46 3.19653 11.6113C2.87108 11.7626 2.48463 11.6212 2.33325 11.2959L3.51196 10.748ZM8.36646 1.8457C9.2281 1.8457 10.0527 2.01034 10.8098 2.30957L11.1301 2.44531L11.2434 2.5127C11.4874 2.69105 11.5811 3.02204 11.4504 3.30762C11.3198 3.59289 11.0084 3.73866 10.7141 3.6709L10.5891 3.62793L10.3323 3.51855C9.72444 3.27828 9.06156 3.14648 8.36646 3.14648C5.41173 3.14648 3.01685 5.54137 3.01685 8.49609C3.01685 9.30181 3.19427 10.0644 3.51196 10.748L2.33325 11.2959C1.93744 10.4442 1.71606 9.49491 1.71606 8.49609C1.71606 4.8234 4.69376 1.8457 8.36646 1.8457ZM8.37134 5.3457C8.73032 5.3457 9.02173 5.63711 9.02173 5.99609V6.00098C9.02173 6.35996 8.73032 6.65137 8.37134 6.65137H8.36646C8.00747 6.65137 7.71606 6.35996 7.71606 6.00098V5.99609C7.71606 5.63711 8.00747 5.3457 8.36646 5.3457H8.37134Z" />
</svg>
