<svg width="17" height="17" viewBox="0 0 17 17" fill="currentColor" xmlns="http://www.w3.org/2000/svg">
<path d="M9.93679 7.58006L1.13796 16.3711L0.046875 15.28L8.83791 6.48118L9.93679 7.58006ZM13.4283 5.32774L13.8881 4.86793L13.2724 4.25224L13.7712 3.75346L12.6645 2.64679L12.1657 3.14557L11.55 2.52989L11.0902 2.9897C9.73416 1.88303 8.20664 0.994572 6.57001 0.371094L5.92315 1.76613C7.28701 2.48313 8.54176 3.3482 9.71078 4.36915L9.32111 4.75882L11.6592 7.09686L12.0488 6.70719C13.0698 7.87621 13.9348 9.13096 14.6518 10.4948L16.0469 9.84796C15.4234 8.21133 14.5349 6.68381 13.4283 5.32774Z" />
</svg>
