<svg width="16" height="17" viewBox="0 0 16 17" fill="currentColor" xmlns="http://www.w3.org/2000/svg">
<path d="M14.6479 9.58101C14.736 9.58605 14.8199 9.62243 14.8823 9.68355C14.9447 9.7447 14.9816 9.8267 14.9868 9.91304C15.0961 11.7358 14.5239 13.2024 13.4565 13.8359C13.1056 14.0451 12.7022 14.1553 12.2915 14.1542C11.8833 14.1496 11.4812 14.053 11.1167 13.873L10.1089 14.8623H12.0376C12.1329 14.8624 12.2241 14.8997 12.2915 14.9658C12.3589 15.0319 12.3969 15.1213 12.3969 15.2148C12.3969 15.3084 12.359 15.3986 12.2915 15.4648C12.2241 15.5307 12.1328 15.5682 12.0376 15.5683H7.97605C7.88061 15.5683 7.78866 15.531 7.72117 15.4648C7.65369 15.3986 7.6157 15.3084 7.6157 15.2148C7.61574 15.1214 7.65394 15.0319 7.72117 14.9658C7.78866 14.8996 7.88061 14.8623 7.97605 14.8623H9.09128L9.45163 14.5087L8.90378 13.9716C8.64255 14.0906 8.35786 14.1534 8.0698 14.1562C7.75246 14.1569 7.44123 14.0712 7.17038 13.9091C6.36036 13.4292 5.92833 12.3295 6.01023 10.9677C6.01557 10.8817 6.05255 10.8002 6.11472 10.7392C6.17698 10.6783 6.26029 10.6418 6.34812 10.6367C7.73753 10.5569 8.85891 10.98 9.34812 11.7734C9.66133 12.2798 9.68063 12.8871 9.41062 13.4716L9.96042 14.0097L10.6079 13.375C10.215 12.5858 10.2253 11.7625 10.646 11.081C11.2926 10.0347 12.7887 9.47394 14.6479 9.58101ZM9.42136 1.57905C9.51341 1.59555 9.60185 1.63054 9.68015 1.68159C9.75845 1.73267 9.82531 1.79937 9.87742 1.8769C9.92946 1.95437 9.9662 2.04117 9.98386 2.13276C10.0015 2.22436 9.99952 2.3189 9.97995 2.41011C9.96032 2.50137 9.92336 2.58862 9.8696 2.66499L8.33347 5.01167L11.1362 9.29194C10.6363 9.57668 10.2072 9.9481 9.88523 10.4169L9.79538 10.5556C9.77196 10.5936 9.74963 10.6334 9.728 10.6718C8.94359 9.92393 7.76957 9.61211 6.58152 9.62788L6.28952 9.63862C6.0042 9.6555 5.72874 9.76184 5.50632 9.94331L5.41452 10.0253C5.20721 10.2287 5.06959 10.495 5.02488 10.7832L5.0112 10.9072C4.92596 12.3262 5.31992 13.7611 6.36863 14.5683H1.69675C1.57134 14.5681 1.44801 14.5338 1.34031 14.4697C1.23255 14.4054 1.14315 14.3133 1.08347 14.2031C1.02395 14.093 0.995342 13.9687 1.00046 13.8437C1.00566 13.7186 1.04524 13.597 1.11374 13.4921L6.66745 5.01167L5.13132 2.66694C5.08095 2.59041 5.04592 2.50398 5.02878 2.41401C5.01173 2.3243 5.01213 2.23193 5.03074 2.14253C5.04947 2.05291 5.08646 1.96716 5.13816 1.89155C5.18983 1.81607 5.25679 1.75111 5.33347 1.70112C5.48821 1.60052 5.67717 1.56559 5.85788 1.60347C6.03855 1.64143 6.19725 1.74903 6.29831 1.90327L7.50046 3.73823L8.70261 1.90327C8.75104 1.82363 8.8154 1.75466 8.89109 1.70015C8.96689 1.64559 9.0529 1.6066 9.14402 1.58589C9.23504 1.56523 9.32947 1.56268 9.42136 1.57905Z" />
</svg>
