<svg width="16" height="16" viewBox="0 0 16 16" fill="currentColor" xmlns="http://www.w3.org/2000/svg">
<path d="M14.6479 9.01265C14.736 9.01769 14.8199 9.05407 14.8823 9.11519C14.9447 9.17634 14.9816 9.25834 14.9868 9.34468C15.0961 11.1674 14.5239 12.6341 13.4565 13.2675C13.1056 13.4767 12.7022 13.587 12.2915 13.5859C11.8833 13.5813 11.4812 13.4846 11.1167 13.3046L10.1089 14.2939H12.0376C12.1329 14.294 12.2241 14.3313 12.2915 14.3974C12.3589 14.4636 12.3969 14.5529 12.3969 14.6464C12.3969 14.74 12.359 14.8303 12.2915 14.8964C12.2241 14.9624 12.1328 14.9998 12.0376 15H7.97605C7.88061 14.9999 7.78866 14.9626 7.72117 14.8964C7.65369 14.8303 7.6157 14.74 7.6157 14.6464C7.61574 14.5531 7.65394 14.4635 7.72117 14.3974C7.78866 14.3313 7.88061 14.2939 7.97605 14.2939H9.09128L9.45163 13.9404L8.90378 13.4033C8.64255 13.5223 8.35786 13.585 8.0698 13.5878C7.75246 13.5885 7.44123 13.5029 7.17038 13.3408C6.36036 12.8608 5.92833 11.7611 6.01023 10.3994C6.01557 10.3133 6.05255 10.2318 6.11472 10.1708C6.17698 10.1099 6.26029 10.0734 6.34812 10.0683C7.73753 9.98853 8.85891 10.4116 9.34812 11.205C9.66133 11.7114 9.68063 12.3188 9.41062 12.9033L9.96042 13.4414L10.6079 12.8066C10.215 12.0175 10.2253 11.1942 10.646 10.5126C11.2926 9.46637 12.7887 8.90558 14.6479 9.01265ZM9.42136 1.01069C9.51341 1.02719 9.60185 1.06218 9.68015 1.11323C9.75845 1.16431 9.82531 1.23101 9.87742 1.30855C9.92946 1.38601 9.9662 1.47281 9.98386 1.5644C10.0015 1.656 9.99952 1.75055 9.97995 1.84175C9.96032 1.93301 9.92336 2.02026 9.8696 2.09663L8.33347 4.44331L11.1362 8.72358C10.6363 9.00832 10.2072 9.37974 9.88523 9.84858L9.79538 9.98726C9.77196 10.0252 9.74963 10.065 9.728 10.1035C8.94359 9.35557 7.76957 9.04375 6.58152 9.05952L6.28952 9.07026C6.0042 9.08714 5.72874 9.19348 5.50632 9.37495L5.41452 9.45698C5.20721 9.66038 5.06959 9.92663 5.02488 10.2148L5.0112 10.3388C4.92596 11.7579 5.31992 13.1928 6.36863 14H1.69675C1.57134 13.9997 1.44801 13.9655 1.34031 13.9013C1.23255 13.8371 1.14315 13.7449 1.08347 13.6347C1.02395 13.5246 0.995342 13.4003 1.00046 13.2753C1.00566 13.1502 1.04524 13.0287 1.11374 12.9238L6.66745 4.44331L5.13132 2.09858C5.08095 2.02205 5.04592 1.93562 5.02878 1.84565C5.01173 1.75594 5.01213 1.66357 5.03074 1.57417C5.04947 1.48455 5.08646 1.3988 5.13816 1.32319C5.18983 1.24772 5.25679 1.18275 5.33347 1.13276C5.48821 1.03217 5.67717 0.997231 5.85788 1.03511C6.03855 1.07307 6.19725 1.18067 6.29831 1.33491L7.50046 3.16987L8.70261 1.33491C8.75104 1.25527 8.8154 1.1863 8.89109 1.13179C8.96689 1.07723 9.0529 1.03824 9.14402 1.01753C9.23504 0.99687 9.32947 0.994317 9.42136 1.01069Z" />
</svg>
