<svg width="16" height="16" viewBox="0 0 16 16" fill="currentColor" xmlns="http://www.w3.org/2000/svg">
<path d="M7.99609 0C8.2264 2.24362e-05 8.44088 0.0481203 8.65527 0.112305C9.57611 0.442274 12.5537 1.52863 13.4834 1.91504C14.1424 2.19696 14.5 2.46304 14.5 3.29199V9.35938C14.5 12.249 12.9666 13.3124 8.52734 15.8477C8.32113 15.9523 8.1221 16 7.99512 16C7.86806 15.9999 7.6781 15.9513 7.47168 15.8467C3.04074 13.3036 1.50006 12.2495 1.5 9.36035V3.29199C1.5 2.46304 1.85759 2.18872 2.5166 1.91504C3.44628 1.53687 6.42389 0.450515 7.34473 0.112305C7.55917 0.0477625 7.77386 0 7.99609 0ZM8 5C7.64589 4.99954 7.30315 5.12451 7.03223 5.35254C6.7613 5.58061 6.57947 5.89707 6.51953 6.24609C6.45965 6.5952 6.52563 6.95438 6.70508 7.25977C6.88452 7.56509 7.16594 7.79746 7.5 7.91504L7.11621 9.90527C7.10228 9.97748 7.10493 10.0518 7.12305 10.123C7.14118 10.1944 7.17489 10.2606 7.22168 10.3174C7.26849 10.3742 7.32699 10.4207 7.39355 10.4521C7.46007 10.4836 7.53288 10.4999 7.60645 10.5H8.39453C8.46816 10.5 8.54081 10.4835 8.60742 10.4521C8.67411 10.4207 8.73335 10.3752 8.78027 10.3184C8.82718 10.2615 8.86072 10.1945 8.87891 10.123C8.89699 10.0518 8.89965 9.97743 8.88574 9.90527L8.5 7.91504C8.83417 7.79749 9.11641 7.56517 9.2959 7.25977C9.47526 6.95442 9.54034 6.59513 9.48047 6.24609C9.42053 5.89718 9.23956 5.58057 8.96875 5.35254C8.69775 5.12441 8.35424 4.99947 8 5Z" />
</svg>
