<svg width="16" height="17" viewBox="0 0 16 17" fill="currentColor" xmlns="http://www.w3.org/2000/svg">
<path d="M14.2166 9.84049C14.239 9.86302 14.2625 9.8849 14.2859 9.90592V14.6423C14.2859 15.4336 13.6462 16.0758 12.8572 16.0758H3.14332C2.35443 16.0757 1.71461 15.4335 1.71461 14.6423V9.90592C1.73806 9.88484 1.7614 9.8631 1.78394 9.84049L8.00074 3.60514L14.2166 9.84049ZM7.75562 13.613C7.51428 13.613 7.31222 13.7849 7.26539 14.0124L7.25562 14.113V14.1169C7.25562 14.3929 7.47957 14.6168 7.75562 14.6169H7.75953C8.03556 14.6167 8.25953 14.3929 8.25953 14.1169V14.113C8.25908 13.8373 8.03529 13.6131 7.75953 13.613H7.75562ZM9.26441 8.32487C8.47708 7.6365 7.25186 7.59364 6.40992 8.19596L6.24684 8.32487C6.03917 8.50658 6.01854 8.8231 6.19996 9.03092C6.35918 9.21272 6.62085 9.25155 6.82301 9.13639L6.90504 9.0778C7.36794 8.67319 8.14334 8.67316 8.60621 9.0778L8.68043 9.15006C9.00461 9.49483 9.00448 9.97321 8.68043 10.318L8.60621 10.3893C8.56713 10.4235 8.5248 10.4554 8.48121 10.484L8.34449 10.5622C7.88375 10.7852 7.25608 11.2676 7.25562 12.028V12.445C7.25578 12.7209 7.47967 12.9449 7.75562 12.945C8.03153 12.9448 8.25546 12.7209 8.25562 12.445V12.028C8.25616 11.8678 8.41236 11.6396 8.78004 11.4616L8.90797 11.3952C9.0333 11.3241 9.15317 11.2396 9.26441 11.1423L9.41871 10.9919C10.0913 10.2665 10.0918 9.20038 9.41871 8.47526L9.26441 8.32487ZM6.78785 1.57975C7.4573 0.908293 8.5422 0.908332 9.21168 1.57975L15.8328 8.2194C16.0558 8.44314 16.0557 8.8061 15.8328 9.02995C15.6096 9.25377 15.2473 9.25377 15.0242 9.02995L8.40406 2.3903C8.18091 2.16647 7.81863 2.16647 7.59547 2.3903L0.975351 9.02995C0.752213 9.25375 0.390895 9.25371 0.167734 9.02995C-0.055423 8.80612 -0.055423 8.44322 0.167734 8.2194L6.78785 1.57975Z" />
</svg>
