<svg width="16" height="16" viewBox="0 0 16 16" fill="currentColor" xmlns="http://www.w3.org/2000/svg">
<path d="M14.1033 11.8324L15.0066 12.9173C15.1455 13.0852 15.2526 13.2734 15.3279 13.4818C15.4031 13.6901 15.4412 13.9045 15.4412 14.1244C15.4411 14.6512 15.2589 15.0958 14.8943 15.4574C14.5296 15.819 14.0862 15.9994 13.5652 15.9994H11.0652C10.5387 15.9996 10.0941 15.8192 9.73219 15.4574C9.37035 15.0956 9.18928 14.651 9.18922 14.1244C9.18922 13.9044 9.22727 13.6902 9.3025 13.4818C9.37775 13.2734 9.48487 13.0852 9.62379 12.9173L10.5261 11.8324H14.1033ZM13.6414 8.18981H7.98414L9.40895 11.0404L8.37281 12.2865L8.37086 12.2884C8.1326 12.5765 7.94913 12.8994 7.82203 13.2513C7.69436 13.605 7.62965 13.9731 7.62965 14.349L7.6443 14.6732C7.65448 14.7841 7.67239 14.8931 7.69312 15.0004H3.14234C2.35355 15.0003 1.71379 14.3589 1.71363 13.5677V8.83141C1.73704 8.81037 1.76046 8.78853 1.78297 8.76598L7.99976 2.53063L13.6414 8.18981ZM12.3152 12.8734C12.1246 12.8739 11.9613 12.9428 11.825 13.0785C11.6887 13.2141 11.6206 13.3775 11.6209 13.5687C11.6212 13.7598 11.6891 13.9231 11.825 14.0589C11.9609 14.1949 12.1242 14.263 12.3152 14.263C12.5071 14.264 12.6702 14.1957 12.8054 14.0589C12.9406 13.9222 13.0088 13.7589 13.0095 13.5687C13.0102 13.3784 12.942 13.2151 12.8054 13.0785C12.6688 12.9419 12.5057 12.873 12.3152 12.8734ZM14.616 9.7484L13.9216 11.1371H10.7087L10.0144 9.7484H14.616ZM6.78785 0.503283C7.4572 -0.167823 8.54225 -0.167699 9.21168 0.503283L15.8328 7.14391C16.0558 7.3677 16.0558 7.73064 15.8328 7.95445C15.6096 8.17828 15.2473 8.17828 15.0242 7.95445L8.40406 1.31383C8.18089 1.09017 7.81857 1.09006 7.59547 1.31383L0.975351 7.95445C0.752254 8.17819 0.390897 8.17809 0.167734 7.95445C-0.055423 7.73063 -0.055423 7.36773 0.167734 7.14391L6.78785 0.503283Z" />
</svg>
