<svg width="16" height="16" viewBox="0 0 16 16" fill="currentColor" xmlns="http://www.w3.org/2000/svg">
<path fill-rule="evenodd" clip-rule="evenodd" d="M2.61501 1C2.31762 1 2.07655 1.24108 2.07655 1.53846C2.07655 1.83585 2.31762 2.07692 2.61501 2.07692V13.9231H2.07655C1.77916 13.9231 1.53809 14.1642 1.53809 14.4615C1.53809 14.7589 1.77916 15 2.07655 15H13.9227C14.2201 15 14.4612 14.7589 14.4612 14.4615C14.4612 14.1642 14.2201 13.9231 13.9227 13.9231H13.3842V2.07692C13.6816 2.07692 13.9227 1.83585 13.9227 1.53846C13.9227 1.24108 13.6816 1 13.3842 1H2.61501ZM5.84578 3.69231C5.54839 3.69231 5.30732 3.93339 5.30732 4.23077C5.30732 4.52815 5.54839 4.76923 5.84578 4.76923H6.9227C7.22008 4.76923 7.46116 4.52815 7.46116 4.23077C7.46116 3.93339 7.22008 3.69231 6.9227 3.69231H5.84578ZM5.30732 6.38462C5.30732 6.08723 5.54839 5.84615 5.84578 5.84615H6.9227C7.22008 5.84615 7.46116 6.08723 7.46116 6.38462C7.46116 6.682 7.22008 6.92308 6.9227 6.92308H5.84578C5.54839 6.92308 5.30732 6.682 5.30732 6.38462ZM5.84578 8C5.54839 8 5.30732 8.24108 5.30732 8.53846C5.30732 8.83585 5.54839 9.07692 5.84578 9.07692H6.9227C7.22008 9.07692 7.46116 8.83585 7.46116 8.53846C7.46116 8.24108 7.22008 8 6.9227 8H5.84578ZM8.53809 4.23077C8.53809 3.93339 8.77916 3.69231 9.07655 3.69231H10.1535C10.4509 3.69231 10.6919 3.93339 10.6919 4.23077C10.6919 4.52815 10.4509 4.76923 10.1535 4.76923H9.07655C8.77916 4.76923 8.53809 4.52815 8.53809 4.23077ZM9.07655 5.84615C8.77916 5.84615 8.53809 6.08723 8.53809 6.38462C8.53809 6.682 8.77916 6.92308 9.07655 6.92308H10.1535C10.4509 6.92308 10.6919 6.682 10.6919 6.38462C10.6919 6.08723 10.4509 5.84615 10.1535 5.84615H9.07655ZM8.53809 8.53846C8.53809 8.24108 8.77916 8 9.07655 8H10.1535C10.4509 8 10.6919 8.24108 10.6919 8.53846C10.6919 8.83585 10.4509 9.07692 10.1535 9.07692H9.07655C8.77916 9.07692 8.53809 8.83585 8.53809 8.53846ZM5.84578 13.3846V11.7692C5.84578 11.4718 6.08686 11.2308 6.38424 11.2308H9.61501C9.91239 11.2308 10.1535 11.4718 10.1535 11.7692V13.3846C10.1535 13.682 9.91239 13.9231 9.61501 13.9231H6.38424C6.08686 13.9231 5.84578 13.682 5.84578 13.3846Z" />
</svg>
