<svg width="16" height="16" viewBox="0 0 16 16" fill="currentColor" xmlns="http://www.w3.org/2000/svg">
<path d="M1.72885 4.53961H8.64867C9.29819 4.54156 9.9234 4.78779 10.4008 5.22817C10.8782 5.66854 11.1738 6.2716 11.2281 6.91881C11.2824 7.56591 11.092 8.21 10.6948 8.72372C10.2975 9.23751 9.72145 9.5834 9.08134 9.69357V14.9198C9.08132 15.1491 8.99042 15.369 8.82838 15.5312C8.66616 15.6934 8.4454 15.7852 8.21599 15.7852C7.98674 15.785 7.7667 15.6933 7.60459 15.5312C7.44251 15.369 7.35165 15.1491 7.35163 14.9198V11.0277H6.05361V14.9198C6.0536 15.1492 5.9628 15.369 5.80065 15.5312C5.6385 15.6934 5.41857 15.7851 5.18925 15.7852C4.95991 15.7852 4.74004 15.6933 4.57784 15.5312C4.41564 15.369 4.32392 15.1492 4.32391 14.9198V6.27029H1.72885V11.5336C1.98175 11.6231 2.20099 11.7884 2.35589 12.0073C2.5108 12.2265 2.59434 12.489 2.5942 12.7574V15.3525H1.72885V13.6228H0.864488V15.3525H-0.000854469V12.7574C-0.000905709 12.4891 0.0825561 12.2274 0.237457 12.0083C0.392368 11.7892 0.611485 11.6231 0.864488 11.5336V6.15407C0.733006 6.07815 0.622976 5.96911 0.547066 5.83762C0.471193 5.70616 0.431817 5.55674 0.431817 5.40495C0.431828 5.25315 0.471169 5.10375 0.547066 4.97228C0.622976 4.84079 0.733006 4.73175 0.864488 4.65583V3.24257H1.72885V4.53961ZM13.4071 2.16138C13.4194 2.17185 14.488 3.08404 14.4883 3.89109C14.4883 4.37067 14.1114 4.88759 13.8026 5.23012C13.827 5.28514 13.8397 5.34477 13.8397 5.40495V7.93456C13.8468 7.51545 13.9149 6.9231 14.2177 6.62287C14.7134 6.13239 15.9641 6.29604 15.9836 6.29862C15.986 6.32158 16.1165 7.5901 15.6222 8.08009C15.1273 8.56988 13.8792 8.40737 13.8564 8.40435C13.8559 8.39973 13.8392 8.23383 13.8397 8V14.0008C13.8458 13.581 13.912 12.9802 14.2177 12.6773C14.713 12.1877 15.9622 12.3503 15.9836 12.3531C15.9836 12.3531 16.1209 13.64 15.6222 14.1346C15.1278 14.6234 13.8819 14.4632 13.8564 14.4598C13.8564 14.4598 13.8405 14.3046 13.8397 14.0818V15.3525C13.8397 15.4671 13.7938 15.5771 13.7128 15.6582C13.6317 15.7392 13.5217 15.7851 13.4071 15.7852C13.2925 15.7852 13.1825 15.7392 13.1014 15.6582C13.0203 15.5771 12.9745 15.4671 12.9744 15.3525V11.0512C12.974 11.2756 12.9568 11.4321 12.9568 11.4321C12.9341 11.4351 11.686 11.5976 11.191 11.1078C10.6919 10.6135 10.8296 9.32536 10.8296 9.32536C10.8539 9.32215 12.1008 9.16012 12.5954 9.64962C12.9146 9.96535 12.9731 10.6059 12.9744 11.0267V5.40495C12.9744 5.34279 12.9874 5.28323 13.0115 5.23012C12.7027 4.88759 12.3259 4.37072 12.3259 3.89109C12.3261 3.07937 13.4071 2.16138 13.4071 2.16138ZM9.08134 8C9.31057 8 9.53056 7.90902 9.69274 7.74704C9.85496 7.58482 9.94668 7.36406 9.94668 7.13466C9.9466 6.90536 9.85489 6.6854 9.69274 6.52325C9.53055 6.36115 9.31066 6.27029 9.08134 6.27029V8ZM6.70311 0.214844C7.10452 0.214884 7.48972 0.374419 7.77356 0.658259C8.05739 0.94211 8.21695 1.32729 8.21697 1.72871C8.21697 2.13011 8.05736 2.51529 7.77356 2.79915C7.48972 3.08299 7.10452 3.24253 6.70311 3.24257C6.30166 3.24257 5.91654 3.08301 5.63266 2.79915C5.34879 2.51528 5.18925 2.13017 5.18925 1.72871C5.18927 1.32728 5.34881 0.942113 5.63266 0.658259C5.91653 0.37446 6.30171 0.214844 6.70311 0.214844Z" />
</svg>
