<svg width="16" height="17" viewBox="0 0 16 17" fill="currentColor" xmlns="http://www.w3.org/2000/svg">
<path d="M14.6479 9.44429C14.736 9.44933 14.8199 9.48571 14.8823 9.54683C14.9447 9.60798 14.9816 9.68998 14.9868 9.77632C15.0961 11.599 14.5239 13.0657 13.4565 13.6992C13.1056 13.9084 12.7022 14.0186 12.2915 14.0175C11.8833 14.0129 11.4812 13.9162 11.1167 13.7363L10.1089 14.7255H12.0376C12.1329 14.7257 12.2241 14.763 12.2915 14.8291C12.3589 14.8952 12.3969 14.9846 12.3969 15.0781C12.3969 15.1717 12.359 15.2619 12.2915 15.3281C12.2241 15.394 12.1328 15.4315 12.0376 15.4316H7.97605C7.88061 15.4316 7.78866 15.3942 7.72117 15.3281C7.65369 15.2619 7.6157 15.1716 7.6157 15.0781C7.61574 14.9847 7.65394 14.8952 7.72117 14.8291C7.78866 14.7629 7.88061 14.7256 7.97605 14.7255H9.09128L9.45163 14.372L8.90378 13.8349C8.64255 13.9539 8.35786 14.0167 8.0698 14.0195C7.75246 14.0201 7.44123 13.9345 7.17038 13.7724C6.36036 13.2925 5.92833 12.1928 6.01023 10.831C6.01557 10.745 6.05255 10.6634 6.11472 10.6025C6.17698 10.5416 6.26029 10.5051 6.34812 10.5C7.73753 10.4202 8.85891 10.8433 9.34812 11.6367C9.66133 12.1431 9.68063 12.7504 9.41062 13.3349L9.96042 13.873L10.6079 13.2382C10.215 12.4491 10.2253 11.6258 10.646 10.9443C11.2926 9.89801 12.7887 9.33722 14.6479 9.44429ZM9.42136 1.44233C9.51341 1.45883 9.60185 1.49382 9.68015 1.54487C9.75845 1.59595 9.82531 1.66265 9.87742 1.74019C9.92946 1.81765 9.9662 1.90445 9.98386 1.99605C10.0015 2.08765 9.99952 2.18219 9.97995 2.27339C9.96032 2.36465 9.92336 2.4519 9.8696 2.52827L8.33347 4.87495L11.1362 9.15522C10.6363 9.43996 10.2072 9.81138 9.88523 10.2802L9.79538 10.4189C9.77196 10.4569 9.74963 10.4966 9.728 10.5351C8.94359 9.78721 7.76957 9.47539 6.58152 9.49116L6.28952 9.5019C6.0042 9.51878 5.72874 9.62512 5.50632 9.80659L5.41452 9.88862C5.20721 10.092 5.06959 10.3583 5.02488 10.6464L5.0112 10.7705C4.92596 12.1895 5.31992 13.6244 6.36863 14.4316H1.69675C1.57134 14.4314 1.44801 14.3971 1.34031 14.333C1.23255 14.2687 1.14315 14.1766 1.08347 14.0664C1.02395 13.9563 0.995342 13.832 1.00046 13.707C1.00566 13.5819 1.04524 13.4603 1.11374 13.3554L6.66745 4.87495L5.13132 2.53022C5.08095 2.45369 5.04592 2.36726 5.02878 2.2773C5.01173 2.18758 5.01213 2.09522 5.03074 2.00581C5.04947 1.9162 5.08646 1.83044 5.13816 1.75483C5.18983 1.67936 5.25679 1.61439 5.33347 1.5644C5.48821 1.46381 5.67717 1.42887 5.85788 1.46675C6.03855 1.50471 6.19725 1.61231 6.29831 1.76655L7.50046 3.60151L8.70261 1.76655C8.75104 1.68691 8.8154 1.61794 8.89109 1.56343C8.96689 1.50887 9.0529 1.46989 9.14402 1.44917C9.23504 1.42851 9.32947 1.42596 9.42136 1.44233Z" />
</svg>
