<svg width="16" height="16" viewBox="0 0 16 16" fill="currentColor" xmlns="http://www.w3.org/2000/svg">
<path d="M7.65865 0.103354C7.86535 -0.0344512 8.13464 -0.0344512 8.34135 0.103354L15.7259 5.02643C16.0087 5.21496 16.0851 5.59703 15.8966 5.87982C15.7081 6.1626 15.326 6.23902 15.0432 6.05049L8 1.35498L0.956796 6.05049C0.674012 6.23902 0.291941 6.1626 0.103418 5.87982C-0.0851048 5.59703 -0.0086908 5.21496 0.274094 5.02643L7.65865 0.103354Z" />
<path fill-rule="evenodd" clip-rule="evenodd" d="M14.7691 6.6318V14.7692H15.3845C15.7244 14.7692 15.9999 15.0447 15.9999 15.3846C15.9999 15.7245 15.7244 16 15.3845 16H0.61538C0.275515 16 0 15.7245 0 15.3846C0 15.0447 0.275515 14.7692 0.61538 14.7692H1.23076V6.6318C1.23076 6.32876 1.45137 6.07082 1.75075 6.02385C3.78727 5.7043 5.87445 5.53846 7.99993 5.53846C10.1254 5.53846 12.2126 5.7043 14.2491 6.02385C14.5485 6.07082 14.7691 6.32876 14.7691 6.6318ZM8.61531 8.61539C8.61531 8.27552 8.3398 8 7.99993 8C7.66007 8 7.38455 8.27552 7.38455 8.61539V14.1538C7.38455 14.4937 7.66007 14.7692 7.99993 14.7692C8.3398 14.7692 8.61531 14.4937 8.61531 14.1538V8.61539ZM11.0768 8C11.4167 8 11.6922 8.27552 11.6922 8.61539V14.1538C11.6922 14.4937 11.4167 14.7692 11.0768 14.7692C10.737 14.7692 10.4615 14.4937 10.4615 14.1538V8.61539C10.4615 8.27552 10.737 8 11.0768 8ZM5.53842 8.61539C5.53842 8.27552 5.2629 8 4.92304 8C4.58317 8 4.30766 8.27552 4.30766 8.61539V14.1538C4.30766 14.4937 4.58317 14.7692 4.92304 14.7692C5.2629 14.7692 5.53842 14.4937 5.53842 14.1538V8.61539Z" />
<path d="M7.99993 4.61538C8.50973 4.61538 8.923 4.20211 8.923 3.69231C8.923 3.18251 8.50973 2.76923 7.99993 2.76923C7.49014 2.76923 7.07687 3.18251 7.07687 3.69231C7.07687 4.20211 7.49014 4.61538 7.99993 4.61538Z" />
</svg>
