<svg width="16" height="16" viewBox="0 0 16 16" fill="currentColor" xmlns="http://www.w3.org/2000/svg">
<path d="M9.31836 3.00035C9.61159 3.00045 9.86307 3.17984 9.9834 3.43785L9.98535 3.4359L15.4521 13.3304L15.4473 13.3334C15.4811 13.3981 15.4995 13.4705 15.5 13.5443C15.4998 13.6572 15.4591 13.7662 15.3857 13.849C15.3123 13.9318 15.2112 13.9829 15.1035 13.9916V14.0004H0.797852V13.9847C0.775565 13.9925 0.752238 13.9974 0.727539 13.9974C0.602195 13.9974 0.500181 13.8912 0.5 13.7601C0.500162 13.7084 0.516645 13.6575 0.546875 13.6166L0.797852 13.1615V13.141H0.80957L3.40625 8.44078C3.46758 8.2992 3.60419 8.19957 3.7627 8.19957C3.83588 8.19975 3.9078 8.22131 3.96973 8.26207C4.03177 8.30292 4.08154 8.36194 4.11328 8.43102L4.11426 8.43004L5.00488 10.0423L8.64258 3.45738C8.70103 3.32133 8.79628 3.20554 8.91602 3.12438C9.03574 3.0433 9.17569 3.00061 9.31836 3.00035ZM4.42578 2.11461C4.69987 2.00108 5.002 1.9708 5.29297 2.02867C5.58383 2.08659 5.85084 2.2301 6.06055 2.43981C6.27021 2.64954 6.41284 2.91652 6.4707 3.20738C6.52856 3.49824 6.49916 3.79959 6.38574 4.0736C6.27221 4.34768 6.07968 4.5826 5.83301 4.74742C5.58641 4.9121 5.29653 5.00035 5 5.00035C4.60226 5.00035 4.22074 4.84209 3.93945 4.5609C3.65824 4.27968 3.5001 3.89804 3.5 3.50035C3.5 3.20368 3.58811 2.91304 3.75293 2.66637C3.91768 2.41991 4.15192 2.22812 4.42578 2.11461Z" />
</svg>
