<svg width="16" height="16" viewBox="0 0 16 16" fill="currentColor" xmlns="http://www.w3.org/2000/svg">
<path d="M7.90718 4.49512C9.63454 4.52047 12.1853 4.4868 12.7147 5.83398L13.9286 8.68164C13.9825 8.62029 14.0531 8.57599 14.1317 8.55371L14.621 8.41602C14.6746 8.40083 14.7306 8.39682 14.786 8.40332C14.8415 8.40986 14.8955 8.42677 14.9442 8.4541C14.9929 8.48142 15.0357 8.51859 15.0702 8.5625C15.1045 8.60633 15.1304 8.65631 15.1454 8.70996L15.4002 9.61523C15.4155 9.66895 15.4195 9.7258 15.4129 9.78125C15.4064 9.83656 15.3884 9.88989 15.3612 9.93848C15.3339 9.98711 15.2976 10.03 15.2538 10.0645C15.21 10.0989 15.1599 10.1246 15.1063 10.1396L14.617 10.2773C14.6008 10.2819 14.5844 10.2836 14.5682 10.2861C14.6614 10.5188 14.7195 10.7745 14.7196 10.9268V14.2373C14.7196 14.4068 14.6489 14.4856 14.536 14.5225V15.4043C14.5361 15.4825 14.52 15.5605 14.4901 15.6328C14.4602 15.705 14.4164 15.771 14.3612 15.8262C14.3059 15.8814 14.2401 15.9252 14.1678 15.9551C14.0955 15.985 14.0176 16.0002 13.9393 16H12.3417C12.2634 16.0002 12.1855 15.985 12.1132 15.9551C12.0409 15.9252 11.9751 15.8814 11.9198 15.8262C11.8645 15.7708 11.8208 15.7042 11.7909 15.6318C11.7611 15.5596 11.7459 15.4824 11.746 15.4043V14.5547H4.25586V15.4043C4.25597 15.4824 4.23977 15.5596 4.20996 15.6318C4.18007 15.7042 4.13641 15.7708 4.08106 15.8262C4.02578 15.8814 3.95989 15.9252 3.8877 15.9551C3.81556 15.9849 3.7382 16.0001 3.66017 16H2.06156C1.98328 16.0001 1.90539 15.985 1.83304 15.9551C1.7608 15.9252 1.69498 15.8814 1.63969 15.8262C1.58434 15.7708 1.54067 15.7042 1.51078 15.6318C1.48101 15.5596 1.46575 15.4824 1.46586 15.4043V14.5225C1.35287 14.4857 1.28132 14.4069 1.28129 14.2373V10.9268C1.28133 10.7745 1.33936 10.5188 1.43266 10.2861C1.41643 10.2835 1.40006 10.2818 1.38383 10.2773L0.895556 10.1396C0.841773 10.1246 0.791032 10.0989 0.74712 10.0645C0.703293 10.03 0.666996 9.98708 0.6397 9.93848C0.612376 9.88978 0.594499 9.83573 0.587943 9.78027C0.581467 9.72498 0.585468 9.66881 0.600638 9.61523L0.856494 8.70996C0.871458 8.65643 0.896436 8.60626 0.930711 8.5625C0.965138 8.51867 1.0081 8.48141 1.05669 8.4541C1.1054 8.42678 1.15942 8.40889 1.21489 8.40234C1.27022 8.39582 1.32631 8.40086 1.37992 8.41602L1.86917 8.55371C1.94783 8.57586 2.01851 8.62012 2.0723 8.68164L3.28615 5.83398C3.78017 4.50689 6.17981 4.46976 7.90718 4.49512ZM2.76565 10.6523C2.45481 10.6577 2.09578 10.8265 2.09573 11.043V11.9658C2.09566 12.0172 2.10639 12.0688 2.12601 12.1162C2.14562 12.1635 2.17379 12.207 2.20999 12.2432C2.2462 12.2794 2.28964 12.3076 2.33694 12.3271C2.38439 12.3467 2.436 12.3565 2.48733 12.3564C3.25154 12.3536 5.1325 12.607 5.13573 11.8779C5.13677 11.6615 4.95337 11.268 4.74511 11.209C4.74511 11.209 3.07751 10.6478 2.76565 10.6523ZM13.2352 10.6523C12.9233 10.6478 11.2558 11.209 11.2558 11.209C11.0475 11.268 10.8641 11.6615 10.8651 11.8779C10.8684 12.6069 12.7495 12.3546 13.5135 12.3574C13.5649 12.3575 13.6165 12.3468 13.6639 12.3271C13.7112 12.3075 13.7547 12.2794 13.7909 12.2432C13.8271 12.207 13.8553 12.1635 13.8749 12.1162C13.8945 12.0688 13.9052 12.0172 13.9051 11.9658V11.043C13.9051 10.8265 13.5461 10.6575 13.2352 10.6523ZM1.96683 9.77441H2.01273C2.00098 9.75927 1.99108 9.74327 1.9805 9.72754L1.96683 9.77441ZM7.93354 5.49609C4.3904 5.45739 4.35392 5.18045 3.1465 8.86133C3.11773 8.94661 3.20408 9.00443 3.29396 9.00977C3.3024 9.01051 6.43132 9.28806 8.00093 9.28809C8.06483 9.28809 8.14501 9.28507 8.21381 9.28418C8.46223 8.45007 9.23708 7.83691 10.1493 7.83691C10.9805 7.83704 11.698 8.34609 12.0067 9.06738C12.4124 9.03461 12.7069 9.00977 12.7069 9.00977C12.7968 9.00448 12.8831 8.94667 12.8544 8.86133C11.4979 5.2714 11.4766 5.53465 7.93354 5.49609ZM10.1493 8.5332C9.90371 8.53241 9.66211 8.60055 9.45305 8.72949C9.24419 8.85842 9.07521 9.04299 8.96576 9.2627C9.72688 9.2314 10.5441 9.17765 11.2538 9.125C11.1333 8.94253 10.969 8.79278 10.7763 8.68945C10.5836 8.58617 10.368 8.53255 10.1493 8.5332ZM4.1211 0C4.13131 0.0115938 5.28494 1.32223 5.28514 2.09473C5.28514 2.40331 5.16248 2.69972 4.94433 2.91797C4.7261 3.1362 4.42971 3.25875 4.1211 3.25879C3.81243 3.25879 3.51613 3.13623 3.29787 2.91797C3.07962 2.69971 2.95705 2.40339 2.95705 2.09473C2.95726 1.3188 4.1211 0 4.1211 0ZM7.99995 0C7.99995 0 9.16379 1.3188 9.164 2.09473C9.164 2.4034 9.04144 2.6997 8.82318 2.91797C8.60493 3.13616 8.30856 3.25879 7.99995 3.25879C7.69152 3.25867 7.39584 3.13603 7.17769 2.91797C6.95943 2.6997 6.83688 2.4034 6.83688 2.09473C6.83709 1.32462 7.98273 0.0195554 7.99995 0ZM11.8798 0C11.8798 0 13.0436 1.3188 13.0438 2.09473C13.0438 2.40337 12.9212 2.69971 12.703 2.91797C12.4847 3.13623 12.1884 3.25879 11.8798 3.25879C11.5711 3.25877 11.2748 3.13622 11.0565 2.91797C10.8384 2.69972 10.7157 2.40333 10.7157 2.09473C10.7159 1.32119 11.8726 0.00810741 11.8798 0Z" />
</svg>
