<svg width="17" height="16" viewBox="0 0 17 16" fill="currentColor" xmlns="http://www.w3.org/2000/svg">
<path d="M8.50977 6.9209C8.71916 6.83718 8.91562 6.85776 9.09863 6.9834C9.28161 7.10904 9.37358 7.28212 9.37402 7.50195V8.45996H14.4004V14.7432C14.4004 15.0887 14.277 15.3846 14.0312 15.6309C13.7854 15.8771 13.4894 16.0004 13.1436 16H3.09082C2.74526 16 2.449 15.8767 2.20312 15.6309C1.95738 15.385 1.8344 15.0891 1.83398 14.7432V9.27734C1.83398 9.02606 1.902 8.79534 2.03809 8.58594C2.17422 8.37651 2.36267 8.21897 2.60352 8.11426L5.35254 6.95215C5.56183 6.86847 5.76084 6.884 5.94922 6.99902C6.13766 7.11418 6.23237 7.28729 6.23242 7.51758V7.83203L8.50977 6.9209ZM4.97559 13.4863H6.23242V10.9736H4.97559V13.4863ZM7.48828 13.4863H8.74512V10.9736H7.48828V13.4863ZM10.002 13.4863H11.2588V10.9736H10.002V13.4863ZM13.2217 3.43359C13.3786 3.43359 13.5147 3.48625 13.6299 3.59082C13.745 3.69548 13.813 3.82644 13.834 3.9834L14.2744 7.51758H11.3682L11.8242 3.9834C11.8452 3.82644 11.9156 3.69548 12.0361 3.59082C12.1568 3.48611 12.2955 3.4336 12.4521 3.43359H13.2217ZM6.25781 0C7.64948 0 8.15228 1.28452 8.1582 1.2998C8.16616 1.28805 8.57004 0.700293 9.75781 0.700195C10.6578 0.700195 11.0586 1.40039 11.0586 1.40039C11.0778 1.39173 12.1631 0.903701 12.7578 1.2998C13.3577 1.59977 13.558 2.39976 13.1582 2.7998C12.6582 1.89994 11.8582 2.20024 10.6582 3.2002C9.85821 3.90014 8.75781 3.2998 8.75781 3.2998C8.75781 3.2998 8.55818 4.50001 7.05859 4.7002C5.37083 4.89876 4.76641 3.91457 4.75781 3.90039C4.7481 3.92403 4.34002 4.89236 2.8584 4.2998C1.76627 3.90267 2.15262 3.21009 2.1582 3.2002C2.1582 3.2002 1.1582 3.2 1.1582 2.5C1.1582 1.60826 2.23798 1.69847 2.25781 1.7002C2.25781 1.7002 2.0582 0.699609 3.1582 0.599609C4.14407 0.501078 4.44963 1.08326 4.45801 1.09961C4.46412 1.07777 4.77327 0.000142828 6.25781 0Z" />
</svg>
