<svg width="16" height="16" viewBox="0 0 16 16" fill="currentColor" xmlns="http://www.w3.org/2000/svg">
<path d="M7.49422 13.1472C8.04635 13.1474 8.49422 13.595 8.49422 14.1472V14.156C8.49409 14.708 8.04627 15.1558 7.49422 15.156H7.48543C6.93323 15.156 6.48557 14.7081 6.48543 14.156V14.1472L6.49032 14.0446C6.54155 13.5404 6.96769 13.1472 7.48543 13.1472H7.49422ZM6.48543 10.6325V9.75363C6.48543 8.18226 7.7839 7.18119 8.75008 6.71359L8.90047 6.63449C9.04787 6.55096 9.18617 6.45311 9.31258 6.3425L9.47371 6.18722C10.2258 5.38695 10.1722 4.25109 9.31258 3.49875C8.31703 2.62764 6.65384 2.62764 5.65829 3.49875C5.24265 3.86228 4.61079 3.82058 4.24715 3.405C3.88347 2.98936 3.92624 2.35755 4.34188 1.99387C6.09149 0.462995 8.87939 0.46297 10.629 1.99387C12.3998 3.54333 12.4552 6.08367 10.795 7.69504L10.629 7.84836C10.3972 8.05113 10.1481 8.22665 9.8868 8.37472L9.62118 8.5134C8.8401 8.89141 8.48543 9.38387 8.48543 9.75363V10.6325C8.48526 11.1847 8.03758 11.6325 7.48543 11.6325C6.93325 11.6325 6.4856 11.1847 6.48543 10.6325Z" />
</svg>
