<svg width="17" height="16" viewBox="0 0 17 16" fill="currentColor" xmlns="http://www.w3.org/2000/svg">
<path d="M12.2186 2.95532L10.8853 2.25532C9.71459 1.64132 9.12925 1.33398 8.49992 1.33398C7.87059 1.33398 7.28525 1.64065 6.11459 2.25532L5.90059 2.36798L11.8493 5.76732L14.5266 4.42732C14.0959 3.93932 13.4013 3.57465 12.2186 2.95398M14.9986 5.30998L12.3333 6.64332V8.66732C12.3333 8.79993 12.2806 8.9271 12.1868 9.02087C12.093 9.11464 11.9659 9.16732 11.8333 9.16732C11.7006 9.16732 11.5735 9.11464 11.4797 9.02087C11.3859 8.9271 11.3333 8.79993 11.3333 8.66732V7.14332L8.99992 8.30998V14.6033C9.47859 14.484 10.0233 14.1987 10.8853 13.746L12.2186 13.046C13.6526 12.2933 14.3699 11.9173 14.7686 11.2407C15.1666 10.5647 15.1666 9.72265 15.1666 8.04065V7.96265C15.1666 6.70065 15.1666 5.91132 14.9986 5.30998ZM7.99992 14.6033V8.30998L2.00125 5.30998C1.83325 5.91132 1.83325 6.70065 1.83325 7.96132V8.03932C1.83325 9.72265 1.83325 10.5647 2.23125 11.2407C2.62992 11.9173 3.34725 12.294 4.78125 13.0467L6.11459 13.746C6.97659 14.1987 7.52125 14.484 7.99992 14.6033ZM2.47325 4.42798L8.49992 7.44132L10.7739 6.30465L4.84992 2.91932L4.78125 2.95532C3.59925 3.57532 2.90392 3.93932 2.47325 4.42798Z" />
</svg>
