<svg width="17" height="16" viewBox="0 0 17 16" fill="currentColor" xmlns="http://www.w3.org/2000/svg">
<path d="M7.84674 1.87776C7.97437 1.822 8.11948 1.822 8.24711 1.87776C10.7263 2.96098 13.076 4.28515 15.2666 5.82061C15.4251 5.93172 15.5052 6.12437 15.4723 6.31514C15.4393 6.5059 15.2992 6.66051 15.1126 6.71202C14.656 6.83805 14.2033 6.9738 13.7548 7.11847C11.934 7.70566 10.1814 8.44449 8.51164 9.32009L8.50946 9.32123C8.43376 9.36094 8.35822 9.40092 8.28286 9.44119C8.13562 9.51986 7.95883 9.51986 7.8116 9.44119C7.73551 9.40054 7.65925 9.36017 7.58282 9.32009C6.75718 8.88713 5.91126 8.48761 5.04687 8.12333V7.9742C5.04687 7.88664 5.09182 7.80893 5.16136 7.7668C6.16478 7.1589 7.19979 6.598 8.26336 6.08714C8.51228 5.96758 8.61714 5.66887 8.49758 5.41995C8.37802 5.17104 8.07931 5.06617 7.83039 5.18573C6.73755 5.71065 5.67411 6.28696 4.6432 6.91152C4.34095 7.09463 4.13776 7.39433 4.07092 7.73008C3.50097 7.51084 2.92353 7.30663 2.33907 7.11815C1.89052 6.9735 1.43783 6.83804 0.981238 6.71201C0.794625 6.6605 0.654515 6.5059 0.621568 6.31513C0.588621 6.12436 0.668758 5.93172 0.827284 5.8206C3.01784 4.28514 5.36752 2.96097 7.84674 1.87776Z" />
<path d="M8.75412 10.3232C10.38 9.45444 12.0883 8.72002 13.8641 8.13463C13.9536 9.07784 14.0107 10.0304 14.0344 10.9912C14.0395 11.1974 13.9175 11.3855 13.7272 11.4649C11.8264 12.2585 10.0185 13.2303 8.32417 14.3594C8.15625 14.4713 7.93753 14.4713 7.76961 14.3594C6.07532 13.2303 4.26736 12.2585 2.36661 11.4649C2.17631 11.3855 2.05432 11.1974 2.05939 10.9912C2.08307 10.0303 2.14022 9.07769 2.22972 8.13441C2.84372 8.3368 3.44964 8.557 4.04687 8.79442V9.64135C3.74797 9.81426 3.54687 10.1374 3.54687 10.5076C3.54687 10.8378 3.70693 11.1306 3.95369 11.3127C3.89401 11.5665 3.80569 11.8148 3.68872 12.0526C3.99052 12.195 4.28973 12.342 4.58627 12.4935C4.75516 12.15 4.87762 11.7895 4.95364 11.4214C5.3032 11.2655 5.54687 10.915 5.54687 10.5076C5.54687 10.1374 5.34578 9.81426 5.04687 9.64135V9.2115C5.82781 9.55272 6.59277 9.92375 7.34034 10.3232C7.78205 10.5592 8.31241 10.5592 8.75412 10.3232Z" />
<path d="M3.02169 12.9824C3.30111 12.703 3.52356 12.3883 3.68872 12.0526C3.99052 12.195 4.28973 12.342 4.58627 12.4935C4.37391 12.9254 4.08797 13.3304 3.7288 13.6895C3.53354 13.8848 3.21695 13.8848 3.02169 13.6895C2.82643 13.4943 2.82643 13.1777 3.02169 12.9824Z" />
</svg>
