<svg width="17" height="16" viewBox="0 0 17 16" fill="currentColor" xmlns="http://www.w3.org/2000/svg">
<path d="M1.30005 1.40078C1.30005 1.06941 1.56868 0.800781 1.90005 0.800781H3.20282C3.9021 0.800781 4.49414 1.31677 4.58969 2.00949L4.64369 2.40098C8.30733 2.41088 11.8825 2.79976 15.3319 3.53067C15.6516 3.59843 15.8583 3.90968 15.7968 4.2307C15.4716 5.92516 15.0374 7.5809 14.5017 9.19028C14.4201 9.43541 14.1907 9.60078 13.9324 9.60078H5.30005C5.20859 9.60078 5.11886 9.60688 5.03119 9.61863C4.32841 9.71278 3.74079 10.173 3.46642 10.8008H14.3C14.6314 10.8008 14.9 11.0694 14.9 11.4008C14.9 11.7322 14.6314 12.0008 14.3 12.0008H2.70763C2.54059 12.0008 2.38111 11.9311 2.26757 11.8086C2.15402 11.6861 2.09669 11.5218 2.10936 11.3553C2.20857 10.051 3.08825 8.96627 4.28268 8.56603L3.40094 2.17345C3.38729 2.07449 3.30272 2.00078 3.20282 2.00078H1.90005C1.56868 2.00078 1.30005 1.73215 1.30005 1.40078Z" />
<path d="M5.30005 14.0008C5.30005 14.6635 4.76279 15.2008 4.10005 15.2008C3.43731 15.2008 2.90005 14.6635 2.90005 14.0008C2.90005 13.338 3.43731 12.8008 4.10005 12.8008C4.76279 12.8008 5.30005 13.338 5.30005 14.0008Z" />
<path d="M12.9 15.2008C13.5628 15.2008 14.1 14.6635 14.1 14.0008C14.1 13.338 13.5628 12.8008 12.9 12.8008C12.2373 12.8008 11.7 13.338 11.7 14.0008C11.7 14.6635 12.2373 15.2008 12.9 15.2008Z" />
</svg>
