<svg width="16" height="16" viewBox="0 0 16 16" fill="currentColor" xmlns="http://www.w3.org/2000/svg">
<path d="M1 2C1 0.896875 1.89688 0 3 0H8C9.10312 0 10 0.896875 10 2V8H10.25C11.7687 8 13 9.23125 13 10.75V11.75C13 12.1656 13.3344 12.5 13.75 12.5C14.1656 12.5 14.5 12.1656 14.5 11.75V6.9375C13.6375 6.71563 13 5.93125 13 5V3L12 2C11.725 1.725 11.725 1.275 12 1C12.275 0.725 12.725 0.725 13 1L15.4156 3.41563C15.7906 3.79063 16 4.3 16 4.83125V11.7531C16 12.9969 14.9937 14.0031 13.75 14.0031C12.5063 14.0031 11.5 12.9969 11.5 11.7531V10.7531C11.5 10.0625 10.9406 9.50313 10.25 9.50313H10V14.0031C10.5531 14.0031 11 14.45 11 15.0031C11 15.5563 10.5531 16.0031 10 16.0031L1 16C0.446875 16 0 15.5531 0 15C0 14.4469 0.446875 14 1 14V2ZM3 2.5V5.5C3 5.775 3.225 6 3.5 6H7.5C7.775 6 8 5.775 8 5.5V2.5C8 2.225 7.775 2 7.5 2H3.5C3.225 2 3 2.225 3 2.5Z" />
</svg>
