<svg width="16" height="17" viewBox="0 0 16 17" fill="currentColor" xmlns="http://www.w3.org/2000/svg">
<path d="M4.20605 0.514648C6.31913 0.65765 7.99987 2.98778 8 5.84082C8 8.58615 6.44434 10.8469 4.44434 11.1416V15.1748H11.5557V11.1953H9.45508C9.12749 11.1954 8.80876 11.085 8.55176 10.8818C8.29474 10.6787 8.11358 10.394 8.03809 10.0752C7.96272 9.75658 7.99728 9.42169 8.13574 9.125C8.27431 8.82822 8.50898 8.58627 8.80176 8.43945C8.67238 8.00428 8.711 7.5364 8.90918 7.12793C9.1075 6.71927 9.45183 6.39905 9.87402 6.23145C9.80052 5.9118 9.79951 5.57963 9.87207 5.25977C9.94466 4.93985 10.0887 4.64045 10.293 4.38379C10.4973 4.1271 10.7572 3.91983 11.0527 3.77734C11.3482 3.63491 11.672 3.56055 12 3.56055L12.2451 3.57422C12.4884 3.60171 12.7257 3.67055 12.9473 3.77734C13.2428 3.91983 13.5027 4.1271 13.707 4.38379C13.9113 4.64045 14.0553 4.93985 14.1279 5.25977C14.2005 5.57963 14.1995 5.9118 14.126 6.23145C14.5482 6.39905 14.8925 6.71927 15.0908 7.12793C15.289 7.5364 15.3276 8.00427 15.1982 8.43945C15.491 8.58627 15.7257 8.82822 15.8643 9.125C16.0027 9.42169 16.0373 9.75658 15.9619 10.0752C15.8864 10.394 15.7053 10.6787 15.4482 10.8818C15.1912 11.085 14.8725 11.1954 14.5449 11.1953H12.4443V15.1748H15.333L15.4639 15.1875C15.5921 15.2131 15.7109 15.2763 15.8047 15.3701C15.9295 15.495 15.9999 15.6642 16 15.8408C16 16.0176 15.9297 16.1875 15.8047 16.3125C15.6797 16.4375 15.5098 16.5078 15.333 16.5078H0.666992C0.490181 16.5078 0.320337 16.4375 0.195312 16.3125C0.0702883 16.1875 0 16.0176 0 15.8408C8.60302e-05 15.6642 0.0704669 15.495 0.195312 15.3701C0.320337 15.2451 0.490181 15.1748 0.666992 15.1748H3.55566V11.1416C1.55566 10.8469 0 8.58615 0 5.84082C0.000132029 2.89564 1.79119 0.507813 4 0.507812L4.20605 0.514648Z" />
</svg>
