<svg width="16" height="16" viewBox="0 0 16 16" fill="currentColor" xmlns="http://www.w3.org/2000/svg">
<path d="M7.64454 1.2C7.3501 0.95 6.9501 0.934375 6.63621 1.15313C6.32232 1.37188 6.16676 1.79063 6.23899 2.19688L6.50843 3.71563C5.96954 3.99688 5.48343 4.3375 5.05287 4.7C4.62787 5.05937 4.24732 5.44687 3.92232 5.83437L1.33621 4.1375C0.988985 3.90937 0.547319 3.97188 0.263985 4.29063C-0.019348 4.60938 -0.083237 5.10312 0.116763 5.49687L1.38899 8L0.116763 10.5031C-0.083237 10.8969 -0.0221258 11.3906 0.263985 11.7094C0.550096 12.0281 0.988985 12.0906 1.33621 11.8625L3.92232 10.1656C4.2501 10.55 4.62787 10.9406 5.05287 11.3C5.48343 11.6625 5.96954 12.0031 6.50843 12.2844L6.23899 13.8031C6.16676 14.2094 6.3251 14.625 6.63621 14.8438C6.94732 15.0625 7.34732 15.0469 7.64454 14.7969L9.8001 12.9781C11.3251 12.8531 12.6195 12.1344 13.6112 11.2969C14.7001 10.3781 15.4779 9.275 15.8779 8.5C16.039 8.19063 16.039 7.80625 15.8779 7.49687C15.4779 6.72187 14.6973 5.61875 13.6112 4.7C12.6168 3.8625 11.3251 3.14375 9.8001 3.01875L7.64454 1.2ZM10.6668 8C10.6668 7.73478 10.7604 7.48043 10.9271 7.29289C11.0938 7.10536 11.3199 7 11.5557 7C11.7914 7 12.0175 7.10536 12.1842 7.29289C12.3509 7.48043 12.4445 7.73478 12.4445 8C12.4445 8.26522 12.3509 8.51957 12.1842 8.70711C12.0175 8.89464 11.7914 9 11.5557 9C11.3199 9 11.0938 8.89464 10.9271 8.70711C10.7604 8.51957 10.6668 8.26522 10.6668 8Z" />
</svg>
