<svg width="16" height="17" viewBox="0 0 16 17" fill="currentColor" xmlns="http://www.w3.org/2000/svg">
<path d="M2.47458 7.87027C2.66831 7.67665 2.98788 7.67664 3.18161 7.87027L3.53415 8.22672C4.19036 8.88293 4.5685 9.71156 4.67478 10.5646L5.43358 9.80485C5.3993 10.4178 5.65048 11.0321 6.15135 11.4445L6.28807 11.5558L6.15135 11.6681C5.4042 12.2832 5.21153 13.3486 5.6953 14.1867L6.17674 15.0217L6.27342 15.173C6.3474 15.278 6.43108 15.3735 6.52147 15.4602C5.70238 15.5025 4.86975 15.2147 4.24412 14.5891L3.86228 14.2082L1.70895 16.3615C1.31837 16.7517 0.684422 16.7518 0.293903 16.3615C-0.0966362 15.9709 -0.0966948 15.3361 0.293903 14.9455L2.44723 12.7922L2.12204 12.467C0.950398 11.2951 0.950237 9.39559 2.12204 8.22379L2.47458 7.87027ZM11.9395 7.03629C12.3914 7.03636 12.7773 7.363 12.8516 7.80875L12.9395 8.33707C12.9494 8.39669 12.9961 8.46572 13.086 8.50895C13.2554 8.59045 13.4175 8.6849 13.5713 8.7902C13.6532 8.84628 13.7363 8.85228 13.793 8.83122L14.2959 8.64274C14.7191 8.48422 15.1949 8.65486 15.4209 9.04606L15.876 9.83415C16.1017 10.2254 16.0117 10.7227 15.6631 11.0099L15.2481 11.3508C15.2014 11.3892 15.1654 11.4646 15.1729 11.5637C15.1798 11.6562 15.1826 11.7497 15.1826 11.8439C15.1826 11.9383 15.1799 12.0325 15.1729 12.1252C15.1656 12.224 15.2015 12.2987 15.2481 12.3371L15.6631 12.6779C16.0118 12.9651 16.1016 13.4624 15.876 13.8537L15.4209 14.6418C15.1949 15.033 14.7191 15.2036 14.2959 15.0451L13.794 14.8566C13.7373 14.8354 13.6534 14.8414 13.5713 14.8977C13.4175 15.003 13.2554 15.0974 13.086 15.1789C12.9961 15.2221 12.9494 15.2912 12.9395 15.3508L12.8516 15.8791C12.7773 16.3249 12.3914 16.6515 11.9395 16.6516H11.0303C10.5783 16.6516 10.1925 16.3249 10.1182 15.8791L10.0303 15.3508C10.0203 15.2912 9.97357 15.2221 9.88379 15.1789C9.71418 15.0973 9.55142 15.0031 9.39746 14.8977C9.31542 14.8415 9.2324 14.8354 9.17578 14.8566L8.67285 15.0451C8.24971 15.2034 7.77376 15.0331 7.54784 14.6418L7.09374 13.8547C6.86776 13.4633 6.9577 12.9652 7.30663 12.6779L7.7207 12.3371C7.76731 12.2987 7.80421 12.2241 7.79687 12.1252C7.7899 12.0324 7.78613 11.9383 7.78613 11.8439C7.78613 11.7497 7.78992 11.6562 7.79687 11.5637C7.80431 11.4646 7.76736 11.3892 7.7207 11.3508L7.30663 11.0099C6.9578 10.7227 6.86787 10.2255 7.09374 9.83415L7.54784 9.04606C7.77377 8.65489 8.24978 8.48451 8.67285 8.64274L9.17578 8.83122C9.23244 8.85244 9.31537 8.84641 9.39746 8.7902C9.55144 8.68478 9.71415 8.59053 9.88379 8.50895C9.97352 8.46571 10.0204 8.39664 10.0303 8.33707L10.1182 7.80875C10.1925 7.36298 10.5783 7.03629 11.0303 7.03629H11.9395ZM11.4844 9.99528C10.4633 9.99548 9.63579 10.8228 9.63575 11.8439C9.63575 12.8651 10.4633 13.6934 11.4844 13.6935C12.5056 13.6935 13.334 12.8652 13.334 11.8439C13.334 10.8227 12.5056 9.99528 11.4844 9.99528ZM5.65623 4.68959C5.84996 4.49597 6.16856 4.49596 6.36229 4.68959L6.71581 5.04214C7.30059 5.62692 7.66303 6.34888 7.81054 7.10269C7.20724 7.12741 6.63365 7.42877 6.27342 7.93961L6.17674 8.09196L5.6953 8.92594C5.59591 9.09809 5.52576 9.28055 5.4824 9.46599L5.30272 9.2863C4.13111 8.11443 4.13101 6.21394 5.30272 5.04214L5.65623 4.68959ZM11.7217 0.87317C12.0122 0.579738 12.4876 0.582945 12.7813 0.87317C13.075 1.16373 13.0748 1.63898 12.7813 1.93275L10.9629 3.75502C11.0984 4.31527 11.1085 4.89725 10.9981 5.46108H10.7324C9.82544 5.46129 9.04291 6.07651 8.81738 6.93961L8.78027 7.11539L8.75098 7.28922L8.58594 7.22769L8.41504 7.17203C8.31743 7.14519 8.21858 7.12689 8.12011 7.11539L8.80957 6.42691L8.48437 6.10171C7.31264 4.92982 7.31254 3.02938 8.48437 1.85755L8.84082 1.50501C9.03455 1.31139 9.35315 1.31138 9.54688 1.50501L9.89649 1.85755C10.0402 1.99809 10.1686 2.14867 10.2842 2.30482L11.7217 0.87317ZM14.7217 3.87318C15.0122 3.57975 15.4876 3.58296 15.7813 3.87318C16.075 4.16374 16.0748 4.63899 15.7813 4.93276L14.3379 6.3732C14.519 6.50121 14.6873 6.64545 14.8496 6.80777L15.2032 7.16422C15.227 7.18806 15.2477 7.21421 15.2657 7.24137C14.8756 7.08715 14.4375 7.056 14.0147 7.17203L13.8438 7.22769L13.6778 7.28922L13.6494 7.11539L13.6123 6.93961C13.4681 6.38751 13.0954 5.93686 12.6084 5.68374C12.6943 5.69634 12.7801 5.71145 12.8653 5.72964L14.7217 3.87318ZM14.7217 0.87317C15.0122 0.579738 15.4876 0.582945 15.7813 0.87317C16.075 1.16373 16.0748 1.63898 15.7813 1.93275L15.7784 1.92982L13.0283 4.67983C12.7377 4.97358 12.2625 4.97046 11.9688 4.67983C11.6752 4.38919 11.6751 3.91396 11.9688 3.62025L14.7217 0.87317Z" />
</svg>
