<svg width="24" height="24" viewBox="0 0 24 24" fill="currentColor" xmlns="http://www.w3.org/2000/svg">
<path d="M14.2501 19.5001V15.0001C14.2501 14.5859 14.5859 14.2501 15.0001 14.2501H19.5001L19.5773 14.254C19.9552 14.2926 20.2501 14.612 20.2501 15.0001C20.2501 15.3883 19.9552 15.7076 19.5773 15.7462L19.5001 15.7501H16.8107L20.7804 19.7198L20.8321 19.7765C21.0725 20.0711 21.055 20.5058 20.7804 20.7804C20.5058 21.055 20.0711 21.0725 19.7765 20.8321L19.7198 20.7804L15.7501 16.8107V19.5001C15.7501 19.9143 15.4143 20.2501 15.0001 20.2501C14.5859 20.2501 14.2501 19.9143 14.2501 19.5001ZM3.21984 3.21984C3.49445 2.94524 3.92917 2.92778 4.22375 3.16809L4.28039 3.21984L8.25012 7.18957V4.50012C8.25012 4.0859 8.5859 3.75012 9.00012 3.75012C9.41433 3.75012 9.75012 4.0859 9.75012 4.50012V9.00012L9.74621 9.07727C9.71018 9.42987 9.42987 9.71018 9.07726 9.74621L9.00012 9.75012H4.50012C4.0859 9.75012 3.75012 9.41433 3.75012 9.00012C3.75012 8.5859 4.0859 8.25012 4.50012 8.25012H7.18957L3.21984 4.28039L3.16809 4.22375C2.92778 3.92917 2.94524 3.49445 3.21984 3.21984ZM19.7765 3.16809C20.0711 2.92778 20.5058 2.94524 20.7804 3.21984C21.055 3.49445 21.0725 3.92917 20.8321 4.22375L20.7804 4.28039L16.8107 8.25012H19.5001L19.5773 8.25402C19.9552 8.29264 20.2501 8.61195 20.2501 9.00012C20.2501 9.38828 19.9552 9.70759 19.5773 9.74621L19.5001 9.75012H15.0001C14.5859 9.75012 14.2501 9.41433 14.2501 9.00012V4.50012C14.2501 4.0859 14.5859 3.75012 15.0001 3.75012C15.4143 3.75012 15.7501 4.0859 15.7501 4.50012V7.18957L19.7198 3.21984L19.7765 3.16809ZM9.75012 19.5001C9.75012 19.9143 9.41433 20.2501 9.00012 20.2501C8.5859 20.2501 8.25012 19.9143 8.25012 19.5001V16.8107L4.28039 20.7804C3.9875 21.0733 3.51274 21.0733 3.21984 20.7804C2.92695 20.4875 2.92695 20.0127 3.21984 19.7198L7.18957 15.7501H4.50012C4.0859 15.7501 3.75012 15.4143 3.75012 15.0001C3.75012 14.5859 4.0859 14.2501 4.50012 14.2501H9.00012L9.07726 14.254C9.45523 14.2926 9.75012 14.612 9.75012 15.0001V19.5001Z"/>
</svg>
