<svg width="24" height="24" viewBox="0 0 24 24" fill="currentColor" xmlns="http://www.w3.org/2000/svg">
<path d="M20.4001 3.59995C20.4001 2.86435 19.9585 2.35675 19.3873 2.03635C18.8377 1.72795 18.1033 1.54675 17.3017 1.43155C15.6961 1.19995 13.5637 1.19995 11.4385 1.19995H11.4001C11.241 1.19995 11.0884 1.26317 10.9758 1.37569C10.8633 1.48821 10.8001 1.64082 10.8001 1.79995C10.8001 1.95908 10.8633 2.11169 10.9758 2.22422C11.0884 2.33674 11.241 2.39995 11.4001 2.39995C13.5709 2.39995 15.6205 2.40115 17.1301 2.61835C17.8901 2.72955 18.4465 2.88435 18.7993 3.08275C19.1305 3.26875 19.2001 3.43555 19.2001 3.59995C19.2001 3.77995 19.1257 3.94555 18.8233 4.12435C18.4961 4.31955 17.9789 4.47195 17.2717 4.58155C15.8641 4.79755 13.9669 4.79995 12.0001 4.79995H11.9617C10.0405 4.79995 8.0545 4.79995 6.5461 5.03155C5.7913 5.14795 5.0905 5.33155 4.5637 5.64355C4.0117 5.97115 3.6001 6.47875 3.6001 7.19995C3.6001 8.15035 4.3753 8.72035 5.1865 9.02995C6.0313 9.35155 7.1629 9.50155 8.4001 9.50155V8.30155C7.2361 8.30155 6.2689 8.15755 5.6137 7.90795C4.9249 7.64635 4.8001 7.36555 4.8001 7.19995C4.8001 7.01995 4.8757 6.85435 5.1769 6.67555C5.5041 6.48035 6.0213 6.32795 6.7285 6.21835C8.1361 6.00235 10.0333 5.99995 12.0001 5.99995H12.0385C13.9597 5.99995 15.9457 5.99995 17.4541 5.76835C18.2089 5.65195 18.9097 5.46835 19.4365 5.15635C19.9885 4.82875 20.4001 4.32115 20.4001 3.59995ZM10.8001 8.99875C10.8001 8.83962 10.8633 8.68701 10.9758 8.57449C11.0884 8.46197 11.241 8.39875 11.4001 8.39875C11.5592 8.39875 11.7118 8.46197 11.8244 8.57449C11.9369 8.68701 12.0001 8.83962 12.0001 8.99875V12C12.0001 12.1383 12.0478 12.2723 12.1353 12.3795C12.2228 12.4866 12.3446 12.5603 12.4801 12.588L15.9553 13.29C16.1937 13.3382 16.4199 13.4342 16.6202 13.5723C16.8205 13.7103 16.9907 13.8876 17.1206 14.0933C17.2505 14.299 17.3373 14.5288 17.3759 14.769C17.4144 15.0092 17.4039 15.2547 17.3449 15.4908L16.3477 19.4844C16.32 19.5954 16.2611 19.6962 16.1779 19.7749C16.0948 19.8536 15.9909 19.9068 15.8785 19.9284L13.4785 20.3904C13.3057 20.424 13.1065 20.3808 12.8977 20.2392C12.6757 20.0842 12.4979 19.8741 12.3817 19.6296C12.0201 18.8576 11.4192 18.223 10.6681 17.82L6.0397 15.072C6.1599 14.8015 6.38192 14.5893 6.65756 14.4815C6.93321 14.3736 7.24026 14.3788 7.5121 14.496L9.9625 15.552C10.0539 15.5914 10.1536 15.6074 10.2527 15.5987C10.3518 15.59 10.4472 15.5567 10.5303 15.502C10.6133 15.4472 10.6815 15.3727 10.7286 15.2851C10.7757 15.1974 10.8003 15.0994 10.8001 15V8.99875ZM11.4001 7.19875C10.9227 7.19875 10.4649 7.38839 10.1273 7.72596C9.78974 8.06352 9.6001 8.52136 9.6001 8.99875V14.0892L7.9861 13.3932C7.68666 13.2643 7.36347 13.1998 7.0375 13.204C6.71154 13.2082 6.3901 13.2808 6.09405 13.4173C5.79801 13.5538 5.53398 13.751 5.31912 13.9962C5.10426 14.2413 4.94337 14.529 4.8469 14.8404C4.77823 15.0618 4.78612 15.2998 4.86928 15.5162C4.95243 15.7326 5.10603 15.9147 5.3053 16.0332L10.0669 18.8592L10.0909 18.8712C10.7173 19.2072 11.0821 19.6908 11.2981 20.1456C11.5009 20.5692 11.8249 20.9628 12.2269 21.234C12.6313 21.5076 13.1485 21.6756 13.7041 21.5688L16.1053 21.1068C16.4423 21.0419 16.7538 20.8821 17.0029 20.6461C17.2521 20.4101 17.4286 20.1078 17.5117 19.7748L18.5089 15.7824C18.6073 15.389 18.6249 14.9797 18.5607 14.5794C18.4965 14.179 18.3517 13.7958 18.1353 13.4529C17.9188 13.1101 17.6351 12.8146 17.3012 12.5845C16.9674 12.3544 16.5903 12.1943 16.1929 12.114L13.2001 11.5092V8.99875C13.2001 8.52136 13.0105 8.06352 12.6729 7.72596C12.3353 7.38839 11.8775 7.19875 11.4001 7.19875Z" />
<path d="M13.2001 8.99875C13.2001 8.58108 13.0549 8.17844 12.7925 7.85815L12.6729 7.72596C12.3774 7.43051 11.9898 7.24861 11.5776 7.20776L11.4001 7.19875C10.9227 7.19875 10.4649 7.38839 10.1273 7.72596L10.0073 7.85815C9.74504 8.17841 9.6001 8.58117 9.6001 8.99875V14.0892L7.9861 13.3932C7.76145 13.2965 7.52328 13.236 7.28076 13.2136L7.0375 13.204C6.71154 13.2082 6.3901 13.2808 6.09405 13.4173L5.87842 13.531C5.6692 13.6555 5.48026 13.8123 5.31912 13.9962L5.16846 14.1873C5.0279 14.3863 4.9193 14.6066 4.8469 14.8404L4.81006 15.0085C4.78712 15.1792 4.80685 15.3538 4.86928 15.5162C4.95243 15.7326 5.10603 15.9147 5.3053 16.0332L10.0669 18.8592L10.0909 18.8712C10.7173 19.2072 11.0821 19.6908 11.2981 20.1456C11.5009 20.5692 11.8249 20.9628 12.2269 21.234C12.5807 21.4733 13.021 21.632 13.4976 21.5964L13.7041 21.5688L16.1053 21.1068C16.4002 21.05 16.6756 20.9208 16.9067 20.7312L17.0029 20.6461C17.2209 20.4396 17.3833 20.1823 17.4761 19.8982L17.5117 19.7748L18.5089 15.7824C18.5949 15.4384 18.6188 15.0819 18.5806 14.7302L18.5607 14.5794C18.5045 14.2292 18.3868 13.8921 18.2134 13.5837L18.1353 13.4529C17.9459 13.153 17.7052 12.889 17.4243 12.6736L17.3012 12.5845C17.0092 12.3832 16.6841 12.2358 16.3413 12.1482L16.1929 12.114L13.2001 11.5092V8.99875ZM11.8999 11.9998V8.99878C11.8999 8.86617 11.8472 8.73903 11.7534 8.64526C11.6832 8.57509 11.5944 8.5278 11.4985 8.50854L11.3999 8.49878C11.2674 8.49883 11.1401 8.55154 11.0464 8.64526C10.9527 8.73902 10.8999 8.86622 10.8999 8.99878V14.9998C10.9001 15.1158 10.8718 15.2305 10.8169 15.3328C10.7619 15.4349 10.6823 15.5219 10.5854 15.5857C10.4885 15.6496 10.3769 15.6878 10.2612 15.698C10.1746 15.7056 10.0874 15.6977 10.0044 15.6736L9.92334 15.6433L7.47217 14.5876C7.2246 14.4811 6.94486 14.4768 6.69385 14.575C6.47051 14.6624 6.28553 14.8246 6.17041 15.033L10.7192 17.7341C11.4877 18.1474 12.102 18.7966 12.4722 19.5867L12.564 19.7517C12.6661 19.91 12.7983 20.0473 12.9536 20.156L13.0942 20.2361C13.2304 20.299 13.3537 20.3123 13.4595 20.2917L15.8599 19.8298L15.9282 19.8123C15.9955 19.7891 16.0568 19.7512 16.1089 19.7019C16.1782 19.6363 16.2274 19.5523 16.2505 19.4597L17.2476 15.4666L17.2808 15.2976C17.3053 15.1278 17.3041 14.955 17.2769 14.7849C17.2404 14.5581 17.1583 14.3405 17.0356 14.1462C16.913 13.9522 16.752 13.7853 16.563 13.655C16.4212 13.5573 16.266 13.4812 16.1021 13.4304L15.9351 13.3884L12.4604 12.6863C12.3025 12.654 12.1601 12.5679 12.0581 12.4431C11.9816 12.3494 11.9311 12.2377 11.9106 12.1199L11.8999 11.9998ZM3.50049 7.19995C3.50049 6.43348 3.93979 5.89717 4.51221 5.55737L4.72412 5.44312C5.23554 5.19029 5.86668 5.03479 6.53076 4.93237L7.12158 4.8562C8.54616 4.70018 10.2829 4.69995 11.9614 4.69995L11.9617 4.79995L10.5171 4.80347C9.07742 4.81432 7.67735 4.85788 6.5461 5.03155L6.26611 5.07886C5.61917 5.19622 5.02466 5.37062 4.5637 5.64355L4.36377 5.77515C3.91526 6.10163 3.6001 6.56897 3.6001 7.19995L3.60889 7.37378C3.69703 8.22047 4.42615 8.73968 5.1865 9.02995C5.9258 9.31139 6.88474 9.46179 7.94189 9.49487L8.4001 9.50155V8.30155C7.2361 8.30155 6.2689 8.15755 5.6137 7.90795C5.01124 7.67914 4.84053 7.43559 4.80713 7.26733L4.8001 7.19995C4.8001 7.04236 4.85816 6.89598 5.07471 6.74194L5.1769 6.67555C5.42232 6.5292 5.7748 6.40657 6.23389 6.30835L6.7285 6.21835C7.78415 6.05636 9.11519 6.01446 10.5444 6.00366L12.0001 5.99995H12.0385L13.4829 5.99585C14.6826 5.98681 15.8547 5.95528 16.8667 5.84448L17.4541 5.76835C18.1145 5.6665 18.7336 5.51308 19.231 5.26733L19.4365 5.15635C19.9539 4.8493 20.3476 4.38411 20.395 3.73315L20.4001 3.59995C20.4001 2.95652 20.0622 2.48762 19.5952 2.16577L19.3873 2.03635C18.9065 1.76662 18.284 1.59432 17.5991 1.47827L17.3017 1.43155C16.0977 1.25792 14.5971 1.21472 13.0259 1.20386L11.4385 1.19995L11.439 1.10034C13.5614 1.10034 15.7017 1.09993 17.3159 1.33276L17.6147 1.37964C18.3053 1.49658 18.9408 1.67116 19.436 1.94897L19.6519 2.08276C20.1382 2.41807 20.5005 2.91472 20.5005 3.60034C20.5004 4.27069 20.1633 4.76459 19.6958 5.10522L19.4878 5.24194C19.0123 5.52354 18.4044 5.70167 17.7515 5.82007L17.4692 5.86694C15.9516 6.09995 13.9571 6.10034 12.0386 6.10034H12.0005C10.2772 6.10034 8.61566 6.10162 7.29053 6.24585L6.74365 6.31714C6.12766 6.41261 5.66655 6.53975 5.35303 6.69409L5.22803 6.76147C5.08535 6.84617 5.00486 6.92284 4.95947 6.99194C4.91551 7.05899 4.8999 7.12563 4.8999 7.19995C4.8999 7.28908 4.95614 7.49606 5.42334 7.71851L5.64893 7.81421L5.90381 7.90112C6.53042 8.0917 7.38704 8.20189 8.3999 8.2019H8.50049V9.60132H8.3999C7.31209 9.6013 6.2995 9.48629 5.48682 9.23804L5.15088 9.12378C4.33048 8.81067 3.50049 8.21633 3.50049 7.19995ZM12.0005 4.69995L12.0001 4.79995H11.9617L11.9614 4.69995H12.0005ZM19.1001 3.60034C19.1001 3.53438 19.0868 3.47182 19.0415 3.40601C19.0062 3.35477 18.9488 3.29788 18.856 3.23511L18.7505 3.16968C18.4982 3.02782 18.1303 2.90688 17.6431 2.80835L17.1157 2.71753C15.6148 2.5016 13.5734 2.49976 11.3999 2.49976C11.2143 2.4997 11.036 2.42591 10.9048 2.29468C10.7737 2.16343 10.6997 1.98507 10.6997 1.79956C10.6998 1.61423 10.7738 1.43657 10.9048 1.30542C11.036 1.17419 11.2143 1.10039 11.3999 1.10034L11.4001 1.19995C11.241 1.19995 11.0884 1.26317 10.9758 1.37569L10.9009 1.46753C10.8358 1.5652 10.8002 1.68088 10.8001 1.79995L10.812 1.91772C10.8351 2.03297 10.8915 2.13988 10.9758 2.22422C11.0884 2.33674 11.241 2.39995 11.4001 2.39995C13.5709 2.39995 15.6205 2.40115 17.1301 2.61835C17.8901 2.72955 18.4465 2.88435 18.7993 3.08275C19.1305 3.26875 19.2001 3.43555 19.2001 3.59995L19.1968 3.66675C19.1784 3.8215 19.0879 3.96789 18.8233 4.12435L18.6919 4.19507C18.3641 4.35657 17.8906 4.48562 17.2717 4.58155L16.7222 4.65308C15.7699 4.7568 14.6468 4.78763 13.4556 4.79663L12.0001 4.79995L12.0005 4.69995C13.9698 4.69995 15.8581 4.69769 17.2563 4.48315L17.7466 4.39331C18.1989 4.29645 18.5393 4.17759 18.772 4.03882L18.8687 3.97632C18.9537 3.91589 19.0076 3.86005 19.0415 3.80835C19.0852 3.74155 19.1 3.67476 19.1001 3.60034ZM11.439 1.10034L11.4385 1.19995H11.4001L11.3999 1.10034H11.439ZM12.0001 12L12.0093 12.1023C12.0268 12.2034 12.0697 12.2991 12.1353 12.3795C12.2228 12.4866 12.3446 12.5603 12.4801 12.588L15.9553 13.29C16.1937 13.3382 16.4199 13.4342 16.6202 13.5723C16.8205 13.7103 16.9907 13.8876 17.1206 14.0933C17.2505 14.299 17.3373 14.5288 17.3759 14.769C17.4144 15.0092 17.4039 15.2547 17.3449 15.4908L16.3477 19.4844L16.3208 19.5652C16.2887 19.6441 16.2403 19.7158 16.1779 19.7749L16.1118 19.8289C16.0422 19.878 15.9628 19.9122 15.8785 19.9284L13.4785 20.3904C13.349 20.4154 13.2043 20.3972 13.0522 20.3269L12.8977 20.2392C12.7312 20.1229 12.5894 19.9759 12.48 19.8064L12.3817 19.6296C12.0201 18.8576 11.4192 18.223 10.6681 17.82L6.0397 15.072C6.14489 14.8352 6.32828 14.6436 6.55713 14.5271L6.65756 14.4815C6.93321 14.3736 7.24026 14.3788 7.5121 14.496L9.9625 15.552C10.031 15.5815 10.1041 15.5976 10.1782 15.6003L10.2527 15.5987C10.3269 15.5922 10.3989 15.5716 10.4653 15.5388L10.5303 15.502C10.5925 15.461 10.6461 15.4088 10.689 15.3484L10.7286 15.2851C10.7639 15.2194 10.7864 15.1476 10.7954 15.074L10.8001 15V8.99875C10.8001 8.87938 10.8356 8.76364 10.9009 8.66577L10.9758 8.57449C11.0884 8.46197 11.241 8.39875 11.4001 8.39875L11.5181 8.40991C11.6333 8.433 11.74 8.49016 11.8244 8.57449C11.9369 8.68701 12.0001 8.83962 12.0001 8.99875V12ZM13.3003 11.4265L16.2124 12.0164L16.3657 12.0505C16.7201 12.141 17.0561 12.2937 17.3579 12.5017C17.7029 12.7395 17.9965 13.0449 18.2202 13.3992C18.4439 13.7534 18.5933 14.1496 18.6597 14.5632C18.7177 14.9251 18.7107 15.2943 18.6401 15.6531L18.606 15.8064L17.6089 19.7986C17.5212 20.15 17.3347 20.4694 17.0718 20.7185C16.8417 20.9365 16.5611 21.093 16.2563 21.1746L16.1245 21.2048L13.7231 21.6667C13.1356 21.7797 12.5912 21.6018 12.1704 21.3171C11.7529 21.0353 11.4173 20.6272 11.2075 20.1892C10.9987 19.7496 10.6472 19.2836 10.0435 18.9597L10.022 18.949L10.0161 18.9451L5.25439 16.1189C5.03591 15.989 4.86712 15.7897 4.77588 15.5525C4.68466 15.3151 4.67615 15.0532 4.75146 14.8103L4.83936 14.572C4.93946 14.3388 5.07569 14.1221 5.24365 13.9304C5.46773 13.6747 5.74351 13.4693 6.05225 13.3269C6.36103 13.1846 6.69663 13.1086 7.03662 13.1042C7.37648 13.1 7.71368 13.1671 8.02588 13.3015L9.50049 13.9373V8.99878C9.50049 8.49492 9.6999 8.01134 10.0562 7.65503C10.4124 7.29876 10.8961 7.09844 11.3999 7.09839C11.9038 7.09839 12.3873 7.29876 12.7437 7.65503C13.1 8.01135 13.3003 8.49487 13.3003 8.99878V11.4265Z" />
</svg>
