<svg width="24" height="24" viewBox="0 0 24 24" fill="currentColor" xmlns="http://www.w3.org/2000/svg">
<rect x="0.5" y="0.5" width="23" height="23" rx="11.5"/>
<rect x="0.5" y="0.5" width="23" height="23" rx="11.5" stroke="white"/>
<path d="M11.6464 6.60348C11.8417 6.40822 12.1583 6.40822 12.3536 6.60348L18.1464 12.3964C18.3417 12.5916 18.6583 12.5916 18.8536 12.3964C19.0488 12.2011 19.0488 11.8845 18.8536 11.6893L13.0607 5.89637C12.4749 5.31058 11.5251 5.31059 10.9393 5.89637L5.14645 11.6893C4.95118 11.8845 4.95118 12.2011 5.14645 12.3964C5.34171 12.5916 5.65829 12.5916 5.85355 12.3964L11.6464 6.60348Z M12 7.66414L17.4393 13.1035C17.4592 13.1233 17.4794 13.1424 17.5 13.1609V17.2928C17.5 17.9832 16.9404 18.5428 16.25 18.5428H14C13.7239 18.5428 13.5 18.319 13.5 18.0428V15.0428C13.5 14.7667 13.2761 14.5428 13 14.5428H11C10.7239 14.5428 10.5 14.7667 10.5 15.0428V18.0428C10.5 18.319 10.2761 18.5428 10 18.5428H7.75C7.05964 18.5428 6.5 17.9832 6.5 17.2928V13.1609C6.52062 13.1424 6.54085 13.1233 6.56066 13.1035L12 7.66414Z" fill="white"/>
</svg>
