<svg width="24" height="24" viewBox="0 0 24 24" fill="currentColor" xmlns="http://www.w3.org/2000/svg">
<path d="M11.7295 1.55078C11.9324 1.47225 12.1612 1.48522 12.3555 1.58985L22.1055 6.83985C22.3484 6.97066 22.5 7.22409 22.5 7.5C22.5 7.77592 22.3484 8.02935 22.1055 8.16016L19.1523 9.75L22.1055 11.3398C22.3484 11.4707 22.5 11.7241 22.5 12C22.5 12.2759 22.3484 12.5294 22.1055 12.6602L19.1523 14.25L22.1055 15.8398C22.3484 15.9707 22.5 16.2241 22.5 16.5C22.5 16.7759 22.3484 17.0294 22.1055 17.1602L12.3555 22.4102C12.1335 22.5297 11.8665 22.5297 11.6445 22.4102L1.89453 17.1602C1.6516 17.0294 1.5 16.7759 1.5 16.5C1.5 16.2241 1.6516 15.9707 1.89453 15.8398L4.84668 14.25L1.89453 12.6602C1.6516 12.5294 1.5 12.2759 1.5 12C1.5 11.7241 1.6516 11.4707 1.89453 11.3398L4.84668 9.75L1.89453 8.16016C1.6516 8.02935 1.5 7.77592 1.5 7.5C1.5 7.22409 1.6516 6.97066 1.89453 6.83985L11.6445 1.58985L11.7295 1.55078ZM12.3555 17.9102C12.1335 18.0297 11.8665 18.0297 11.6445 17.9102L6.42773 15.1006L3.83105 16.5L12 20.8984L20.168 16.5L17.5713 15.1006L12.3555 17.9102ZM12.3555 13.4102C12.1335 13.5297 11.8665 13.5297 11.6445 13.4102L6.42773 10.6006L3.83105 12L12 16.3975L20.168 12L17.5713 10.6006L12.3555 13.4102ZM3.83105 7.49903L12 11.8975L20.168 7.49903L12 3.10157L3.83105 7.49903Z"/>
</svg>
