<svg width="24" height="24" viewBox="0 0 24 24" fill="currentColor" xmlns="http://www.w3.org/2000/svg">
<path d="M18.7773 13.2598C19.4214 13.3076 20.0444 13.5213 20.584 13.8819C21.2004 14.294 21.6811 14.8794 21.9648 15.5645C22.2486 16.2498 22.3225 17.004 22.1777 17.7315C22.051 18.368 21.7617 18.9591 21.3398 19.4483L21.1514 19.6514C20.7637 20.0391 20.0337 20.684 18.9844 21.5723C18.7059 21.808 18.2983 21.8094 18.0186 21.5752C17.2703 20.9487 16.6732 20.4293 16.2344 20.0215L15.8486 19.6514C15.3241 19.127 14.9671 18.4589 14.8223 17.7315C14.6775 17.004 14.7514 16.2498 15.0352 15.5645C15.3189 14.8794 15.7996 14.294 16.416 13.8819C17.0327 13.4698 17.7583 13.2491 18.5 13.2491L18.7773 13.2598ZM18.334 14.7559C17.9474 14.7845 17.5738 14.9125 17.25 15.1289C16.88 15.3762 16.5912 15.7276 16.4209 16.1387C16.2507 16.5498 16.2062 17.0022 16.293 17.4385C16.3798 17.875 16.5944 18.2762 16.9092 18.5909L17.2598 18.9268C17.5718 19.2166 17.9837 19.578 18.4971 20.0147C19.2799 19.3444 19.8079 18.8738 20.0908 18.5909L20.2041 18.4688C20.4572 18.1753 20.631 17.8204 20.707 17.4385C20.7938 17.0022 20.7493 16.5498 20.5791 16.1387C20.4088 15.7276 20.12 15.3762 19.75 15.1289C19.38 14.8817 18.945 14.7491 18.5 14.7491L18.334 14.7559ZM3.25 6.46293V17.7862L7.75 15.5362V4.21293L3.25 6.46293ZM17.75 17.0098V17C17.75 16.5858 18.0858 16.25 18.5 16.25C18.9142 16.25 19.25 16.5858 19.25 17V17.0098C19.25 17.424 18.9142 17.7598 18.5 17.7598C18.0858 17.7598 17.75 17.424 17.75 17.0098ZM19.75 10V4.21293L15.25 6.46293V11C15.25 11.4143 14.9142 11.75 14.5 11.75C14.0858 11.75 13.75 11.4143 13.75 11V6.46293L9.25 4.21293V15.5362L11.835 16.8291L11.9023 16.8672C12.2232 17.0707 12.3442 17.4878 12.1709 17.835C11.9973 18.1823 11.5907 18.3358 11.2354 18.2012L11.165 18.1709L8.5 16.8379L2.83496 19.6709C2.60255 19.787 2.32646 19.7743 2.10547 19.6377C1.88453 19.501 1.75 19.2599 1.75 19V6.00004L1.75781 5.89457C1.7921 5.65296 1.94282 5.44025 2.16504 5.32914L8.16504 2.32914L8.24512 2.29496C8.43698 2.22559 8.65019 2.23689 8.83496 2.32914L14.5 5.16118L20.165 2.32914L20.2539 2.29203C20.4655 2.21846 20.7011 2.2428 20.8945 2.36235C21.1155 2.49904 21.25 2.74023 21.25 3.00004V10C21.25 10.4143 20.9142 10.75 20.5 10.75C20.0858 10.75 19.75 10.4143 19.75 10Z" />
</svg>
