<svg width="24" height="24" viewBox="0 0 24 24" fill="currentColor" xmlns="http://www.w3.org/2000/svg">
<path fill-rule="evenodd" clip-rule="evenodd" d="M2.88372 0.25C1.42916 0.25 0.25 1.42916 0.25 2.88372C0.25 3.34672 0.370123 3.78392 0.581467 4.16353C0.892765 4.72267 1.40311 5.15763 2.01748 5.3716V14.6283C0.98846 14.9866 0.25 15.9652 0.25 17.1163C0.25 17.5793 0.370123 18.0165 0.581467 18.3961C1.03018 19.202 1.89245 19.75 2.88372 19.75C4.04905 19.75 5.0376 18.9932 5.38467 17.9442H8.47761C8.43575 18.0283 8.39912 18.1161 8.3689 18.2086C8.21054 18.6955 8.21028 19.221 8.36863 19.7079C8.47364 20.0308 8.65618 20.2955 8.86721 20.5441C9.06596 20.7783 9.32905 21.042 9.63745 21.3511L9.66882 21.3825L10.6255 22.3377C10.9448 22.6574 11.2158 22.9287 11.4562 23.1327C11.7053 23.3441 11.9699 23.5263 12.2914 23.6313L12.2935 23.632C12.7803 23.7893 13.3026 23.7893 13.7894 23.632L13.7914 23.6313C14.1131 23.5262 14.3776 23.3439 14.6263 23.1328C14.864 22.9312 15.1318 22.6636 15.4469 22.3489L22.3488 15.4469C22.6635 15.1317 22.9311 14.8639 23.1327 14.6262C23.3438 14.3775 23.5261 14.113 23.6312 13.7914L23.6318 13.7893C23.7892 13.3025 23.7892 12.7802 23.6318 12.2934L23.6312 12.2913C23.5262 11.9698 23.344 11.7053 23.1328 11.4563C22.9295 11.2165 22.6593 10.9463 22.3411 10.6281L21.3604 9.64819C21.0473 9.33502 20.7806 9.06833 20.5438 8.86727C20.2951 8.65608 20.0305 8.47361 19.7082 8.36857L19.7071 8.3682C19.2206 8.21054 18.6973 8.21071 18.2107 8.36804L18.2086 8.36871C17.9353 8.45795 17.7034 8.60298 17.4872 8.77401V5.38469C18.5362 5.03764 19.2931 4.04907 19.2931 2.88372C19.2931 1.42916 18.1139 0.25 16.6594 0.25C15.344 0.25 14.2539 1.21425 14.0573 2.47444H5.48583C5.28921 1.21425 4.19907 0.25 2.88372 0.25ZM1.75 2.88372C1.75 2.25758 2.25758 1.75 2.88372 1.75C3.50986 1.75 4.01744 2.25758 4.01744 2.88372C4.01744 3.50986 3.50986 4.01744 2.88372 4.01744C2.45843 4.01744 2.08674 3.78359 1.89204 3.43388C1.80173 3.27166 1.75 3.08486 1.75 2.88372ZM15.8314 10.3728V5.38461C15.2 5.1756 14.6749 4.73425 14.3571 4.16353L14.3389 4.13025H5.20435C4.88166 4.72974 4.33346 5.18985 3.67329 5.39704V14.6029C4.48003 14.8561 5.11957 15.487 5.3847 16.2884H9.91601L15.8314 10.3728ZM2.88372 15.9825C2.25758 15.9825 1.75 16.4901 1.75 17.1163C1.75 17.3174 1.80173 17.5042 1.89204 17.6664C2.08674 18.0161 2.45843 18.25 2.88372 18.25C3.50986 18.25 4.01744 17.7424 4.01744 17.1163C4.01744 16.4901 3.50986 15.9825 2.88372 15.9825ZM15.5256 2.88372C15.5256 2.25758 16.0332 1.75 16.6594 1.75C17.2855 1.75 17.7931 2.25758 17.7931 2.88372C17.7931 3.50986 17.2855 4.01744 16.6594 4.01744C16.2341 4.01744 15.8624 3.78359 15.6677 3.43388C15.5774 3.27166 15.5256 3.08486 15.5256 2.88372ZM18.6733 9.79492C18.8597 9.73492 19.059 9.73513 19.244 9.79493C19.3035 9.81443 19.3955 9.86002 19.5729 10.0107C19.7575 10.1674 19.9811 10.3902 20.3208 10.7299L21.2694 11.6778C21.6091 12.0175 21.8321 12.2416 21.9888 12.4264C22.1393 12.6039 22.1853 12.6963 22.2049 12.7559C22.2648 12.942 22.2648 13.1406 22.2049 13.3267C22.1853 13.3862 22.1395 13.4784 21.9889 13.6558C21.8321 13.8407 21.6089 14.065 21.2691 14.4052L14.4049 21.2696C14.0648 21.6093 13.8407 21.8322 13.6559 21.9891C13.4783 22.1397 13.3861 22.1855 13.3267 22.2051C13.1407 22.265 12.9422 22.265 12.7562 22.2051C12.6966 22.1855 12.6042 22.1396 12.4267 21.989C12.242 21.8322 12.0179 21.6091 11.6782 21.2691L10.7291 20.3215C10.3898 19.9814 10.1676 19.7582 10.0109 19.5735C9.85987 19.3956 9.81452 19.3037 9.79508 19.2439C9.73484 19.0587 9.73479 18.8592 9.79492 18.6739C9.81438 18.6145 9.86002 18.5223 10.0111 18.3442C10.168 18.1593 10.391 17.9351 10.7309 17.5948L11.2661 17.0596L12.511 18.3051C12.8038 18.5981 13.2787 18.5982 13.5716 18.3053C13.8646 18.0125 13.8647 17.5376 13.5719 17.2447L12.3267 15.9989L13.6326 14.693L14.8779 15.9378C15.1709 16.2306 15.6458 16.2305 15.9386 15.9376C16.2314 15.6446 16.2313 15.1697 15.9384 14.8769L14.6933 13.6323L15.9998 12.3258L17.2454 13.571C17.3393 13.6648 17.4517 13.7285 17.5709 13.7622C17.8239 13.8337 18.107 13.7699 18.3061 13.5708C18.5989 13.2778 18.5988 12.8029 18.3059 12.5101L17.0604 11.2652L17.5948 10.7307C17.9351 10.3908 18.1593 10.1679 18.3442 10.0109C18.5217 9.86033 18.6139 9.81449 18.6733 9.79492Z" />
</svg>
