<svg width="24" height="24" viewBox="0 0 24 24" fill="currentColor" xmlns="http://www.w3.org/2000/svg">
<path d="M20.4698 2.46956L20.5264 2.41846C20.821 2.178 21.2558 2.1949 21.5305 2.46956C21.8051 2.74422 21.822 3.17901 21.5816 3.4736L21.5305 3.53022L3.53033 21.5304C3.23744 21.8233 2.76256 21.8233 2.46967 21.5304C2.17678 21.2375 2.17678 20.7626 2.46967 20.4697L20.4698 2.46956Z" />
<path d="M21.5305 20.4699L21.5816 20.5265C21.822 20.8211 21.8051 21.2559 21.5305 21.5305C21.2558 21.8052 20.821 21.8221 20.5264 21.5816L20.4698 21.5305L2.46967 3.53037C2.17678 3.23748 2.17678 2.7626 2.46967 2.46971C2.76256 2.17682 3.23744 2.17682 3.53033 2.46971L21.5305 20.4699Z" />
</svg>
