<svg width="24" height="24" viewBox="0 0 24 24" fill="currentColor" xmlns="http://www.w3.org/2000/svg">
<path d="M23 3.25L23.0771 3.25391C23.4551 3.29253 23.75 3.61183 23.75 4C23.75 4.38817 23.4551 4.70747 23.0771 4.74609L23 4.75H1C0.585786 4.75 0.25 4.41421 0.25 4C0.25 3.58579 0.585786 3.25 1 3.25H23Z" />
<path d="M23 11.25C23.4142 11.25 23.75 11.5858 23.75 12C23.75 12.4142 23.4142 12.75 23 12.75H1C0.585786 12.75 0.25 12.4142 0.25 12C0.25 11.5858 0.585786 11.25 1 11.25H23Z" />
<path d="M23 19.25L23.0771 19.2539C23.4551 19.2925 23.75 19.6118 23.75 20C23.75 20.3882 23.4551 20.7075 23.0771 20.7461L23 20.75H1C0.585786 20.75 0.25 20.4142 0.25 20C0.25 19.5858 0.585786 19.25 1 19.25H23Z" />
</svg>
