<svg width="24" height="24" viewBox="0 0 24 24" fill="currentColor" xmlns="http://www.w3.org/2000/svg">
<path d="M11.25 19.5V12.75H4.5C4.08579 12.75 3.75 12.4142 3.75 12C3.75 11.5858 4.08579 11.25 4.5 11.25H11.25V4.5C11.25 4.08579 11.5858 3.75 12 3.75C12.4142 3.75 12.75 4.08579 12.75 4.5V11.25H19.5L19.5771 11.2539C19.9551 11.2925 20.25 11.6118 20.25 12C20.25 12.3882 19.9551 12.7075 19.5771 12.7461L19.5 12.75H12.75V19.5C12.75 19.9142 12.4142 20.25 12 20.25C11.5858 20.25 11.25 19.9142 11.25 19.5Z"/>
</svg>
