<svg width="24" height="24" viewBox="0 0 24 24" fill="currentColor" xmlns="http://www.w3.org/2000/svg">
<path d="M2.23486 19.6441V14.6519C2.23491 14.2377 2.57069 13.9019 2.98486 13.9019H7.97705L8.05322 13.9058C8.43155 13.944 8.72701 14.2635 8.72705 14.6519C8.72705 15.0403 8.43157 15.3597 8.05322 15.398L7.97705 15.4019H4.79443L6.69482 17.3042L6.87256 17.4761C7.77175 18.318 8.8658 18.9262 10.0581 19.2456C11.3297 19.5862 12.6684 19.5864 13.9399 19.2456C15.2115 18.9048 16.3714 18.2352 17.3022 17.3042C18.2331 16.3731 18.9031 15.2128 19.2437 13.9409C19.3508 13.5409 19.7616 13.3037 20.1616 13.4107C20.5617 13.5178 20.7989 13.9286 20.6919 14.3286C20.2833 15.8549 19.4808 17.2474 18.3638 18.3648C17.2467 19.4821 15.8547 20.2858 14.3286 20.6948C12.8026 21.1039 11.1955 21.1037 9.66943 20.6948C8.14335 20.286 6.75144 19.4829 5.63428 18.3657L3.73486 16.4634V19.6441C3.73481 20.0582 3.39904 20.3941 2.98486 20.3941C2.5707 20.3941 2.23492 20.0582 2.23486 19.6441ZM4.75537 10.0591C4.64822 10.459 4.23733 10.6962 3.8374 10.5894C3.43743 10.4823 3.19932 10.0714 3.30615 9.67141L4.75537 10.0591ZM9.67041 3.3052C11.1964 2.89624 12.8036 2.89638 14.3296 3.3052C15.8554 3.71405 17.2467 4.51738 18.3638 5.6343L20.2651 7.53665V4.35598C20.2651 3.94177 20.6009 3.60598 21.0151 3.60598C21.4292 3.60612 21.7651 3.94185 21.7651 4.35598V9.34622C21.7651 9.402 21.7572 9.45602 21.7456 9.50833C21.7362 9.55104 21.7247 9.59392 21.7075 9.63528C21.6894 9.67891 21.6654 9.71877 21.6401 9.75735C21.6363 9.76324 21.6325 9.76915 21.6284 9.77493C21.6061 9.80697 21.5819 9.83687 21.5552 9.86477C21.5501 9.87009 21.5448 9.87523 21.5396 9.8804C21.4198 9.99835 21.2636 10.0736 21.0923 10.0913L21.0874 10.0923C21.0635 10.0946 21.0395 10.0982 21.0151 10.0982H16.0229C15.6088 10.0982 15.2731 9.76229 15.2729 9.34817C15.2729 8.93396 15.6087 8.59817 16.0229 8.59817H19.2056L17.3032 6.69485C16.3723 5.76403 15.2126 5.09509 13.9409 4.75442C12.6691 4.4137 11.3299 4.41351 10.0581 4.75442C8.78644 5.09535 7.62662 5.76472 6.6958 6.69583C5.76494 7.62699 5.09588 8.78725 4.75537 10.0591L4.03076 9.86477L3.30615 9.67141C3.71477 8.14517 4.5182 6.75268 5.63525 5.63528C6.75228 4.51796 8.14436 3.71427 9.67041 3.3052Z" />
</svg>
