<svg width="20" height="20" viewBox="0 0 20 20" fill="currentColor" xmlns="http://www.w3.org/2000/svg">
<path d="M10.0005 4.39998C6.42209 4.39998 3.38403 6.72089 2.31276 9.94133C2.29964 9.98077 2.29965 10.0237 2.3128 10.0631C3.38539 13.2812 6.42229 15.6 9.99907 15.6C13.5775 15.6 16.6156 13.2791 17.6868 10.0586C17.7 10.0192 17.6999 9.97627 17.6868 9.93684C16.6142 6.71873 13.5773 4.39998 10.0005 4.39998ZM1.07922 9.531C2.32189 5.79527 5.8456 3.09998 10.0005 3.09998C14.1535 3.09998 17.6759 5.79276 18.9201 9.52578C19.0221 9.83179 19.0222 10.1629 18.9204 10.469C17.6777 14.2047 14.154 16.9 9.99907 16.9C5.84608 16.9 2.32371 14.2072 1.0795 10.4742C0.977503 10.1682 0.977405 9.83707 1.07922 9.531ZM9.99985 8.14998C8.97813 8.14998 8.14985 8.97825 8.14985 9.99998C8.14985 11.0217 8.97813 11.85 9.99985 11.85C11.0216 11.85 11.8499 11.0217 11.8499 9.99998C11.8499 8.97825 11.0216 8.14998 9.99985 8.14998ZM6.84985 9.99998C6.84985 8.26028 8.26016 6.84998 9.99985 6.84998C11.7396 6.84998 13.1499 8.26028 13.1499 9.99998C13.1499 11.7397 11.7396 13.15 9.99985 13.15C8.26016 13.15 6.84985 11.7397 6.84985 9.99998Z"/>
</svg>
