<svg width="20" height="20" viewBox="0 0 20 20" fill="currentColor" xmlns="http://www.w3.org/2000/svg">
<path d="M15.3496 10C15.3496 9.75244 15.2548 9.51971 15.0928 9.35156C14.9314 9.18421 14.7176 9.09473 14.5 9.09473H5.5C5.28235 9.09473 5.06861 9.18421 4.90723 9.35156C4.74517 9.51971 4.65039 9.75244 4.65039 10V15.4443C4.65039 15.6919 4.7452 15.9246 4.90723 16.0928C5.06861 16.2601 5.28235 16.3496 5.5 16.3496H14.5C14.7176 16.3496 14.9314 16.2601 15.0928 16.0928C15.2548 15.9246 15.3496 15.6919 15.3496 15.4443V10ZM9.34961 13.8887V11.5557C9.34961 11.1967 9.64101 10.9053 10 10.9053C10.359 10.9053 10.6504 11.1967 10.6504 11.5557V13.8887C10.6504 14.2477 10.359 14.5391 10 14.5391C9.64101 14.5391 9.34961 14.2477 9.34961 13.8887ZM12.3496 6.11133C12.3496 5.45113 12.0968 4.82219 11.6533 4.3623C11.2106 3.90329 10.6154 3.65039 10 3.65039C9.38457 3.65039 8.78935 3.90329 8.34668 4.3623C7.90322 4.82219 7.65039 5.45113 7.65039 6.11133V7.79492H12.3496V6.11133ZM13.6504 7.79492H14.5C15.078 7.79492 15.6271 8.03313 16.0283 8.44922C16.4287 8.8645 16.6504 9.42255 16.6504 10V15.4443C16.6504 16.0218 16.4287 16.5798 16.0283 16.9951C15.6271 17.4112 15.078 17.6504 14.5 17.6504H5.5C4.922 17.6504 4.37291 17.4112 3.97168 16.9951C3.5713 16.5798 3.34961 16.0218 3.34961 15.4443V10C3.34961 9.42255 3.57126 8.8645 3.97168 8.44922C4.37291 8.03313 4.922 7.79492 5.5 7.79492H6.34961V6.11133C6.34961 5.12129 6.72937 4.16697 7.41113 3.45996C8.09365 2.75228 9.02427 2.34961 10 2.34961L10.1826 2.35449C11.0913 2.40132 11.9491 2.79657 12.5889 3.45996C13.2706 4.16697 13.6504 5.12129 13.6504 6.11133V7.79492Z" />
</svg>
